<?xml version="1.0" encoding="UTF-8" standalone="no" ?>
<!DOCTYPE svg PUBLIC "-//W3C//DTD SVG 1.1//EN" "http://www.w3.org/Graphics/SVG/1.1/DTD/svg11.dtd">
<svg xmlns="http://www.w3.org/2000/svg" xmlns:xlink="http://www.w3.org/1999/xlink" version="1.1" width="1080" height="1080" viewBox="0 0 1080 1080" xml:space="preserve">
<desc>Created with Fabric.js 5.2.4</desc>
<defs>
</defs>
<g transform="matrix(1 0 0 1 540 540)" id="0f18de07-bea8-4273-9bbd-133ca88dd8ff"  >
<rect style="stroke: none; stroke-width: 1; stroke-dasharray: none; stroke-linecap: butt; stroke-dashoffset: 0; stroke-linejoin: miter; stroke-miterlimit: 4; fill: rgb(255,255,255); fill-rule: nonzero; opacity: 1; visibility: hidden;" vector-effect="non-scaling-stroke"  x="-540" y="-540" rx="0" ry="0" width="1080" height="1080" />
</g>
<g transform="matrix(1 0 0 1 540 540)" id="1dbe6a12-0d51-4027-bc26-c8dacebfa74b"  >
</g>
<g transform="matrix(1 0 0 1 460.36 540.13)"  >
<path style="stroke: none; stroke-width: 1; stroke-dasharray: none; stroke-linecap: butt; stroke-dashoffset: 0; stroke-linejoin: miter; stroke-miterlimit: 4; fill: rgb(0,76,146); fill-rule: nonzero; opacity: 1;" vector-effect="non-scaling-stroke"  transform=" translate(-37.45, -42.2)" d="M 0 28.4822 C 0 12.8954 12.4849 0.259766 27.8859 0.259766 L 47.0143 0.259766 C 62.4152 0.259766 74.9002 12.8954 74.9002 28.4822 L 74.9002 55.9271 C 74.9002 71.5139 62.4152 84.1495 47.0143 84.1495 L 27.8859 84.1495 C 12.4849 84.1495 0 71.5139 0 55.9271 L 0 28.4822 Z" stroke-linecap="round" />
</g>
<g transform="matrix(1 0 0 1 545.72 525.5)"  >
<path style="stroke: none; stroke-width: 1; stroke-dasharray: none; stroke-linecap: butt; stroke-dashoffset: 0; stroke-linejoin: miter; stroke-miterlimit: 4; fill: rgb(255,255,255); fill-rule: evenodd; opacity: 1;" vector-effect="non-scaling-stroke"  transform=" translate(-122.81, -27.57)" d="M 131.482 27.5087 C 131.47 26.3184 131.234 25.1909 130.771 24.1332 C 130.314 23.0776 129.69 22.1521 128.899 21.3628 C 128.117 20.5725 127.202 19.952 126.158 19.5009 C 125.102 19.0447 123.983 18.818 122.806 18.818 C 121.618 18.818 120.488 19.0506 119.421 19.5181 C 118.378 19.9691 117.458 20.589 116.667 21.3774 L 116.664 21.3811 C 115.883 22.1708 115.265 23.0962 114.808 24.151 L 114.806 24.1572 C 114.354 25.2272 114.131 26.3711 114.131 27.5817 C 114.131 28.7822 114.355 29.9205 114.806 30.9897 L 114.808 30.9958 C 115.265 32.0507 115.883 32.976 116.664 33.7657 L 116.667 33.7695 C 117.457 34.5569 118.375 35.1815 119.417 35.6433 L 119.425 35.6471 C 120.491 36.1025 121.62 36.3289 122.806 36.3289 C 123.472 36.3289 124.113 36.2766 124.73 36.1707 C 125.355 36.0652 125.919 35.9097 126.414 35.6971 C 126.918 35.4854 127.355 35.215 127.696 34.8696 L 127.701 34.8645 L 127.706 34.8593 C 128.08 34.4651 128.291 33.9806 128.291 33.4306 C 128.291 33.1386 128.235 32.855 128.125 32.5848 C 128.018 32.3234 127.869 32.0874 127.673 31.8864 C 127.507 31.7066 127.315 31.5599 127.099 31.4494 C 127.072 31.4357 127.045 31.4225 127.018 31.4099 C 126.755 31.2731 126.47 31.2079 126.176 31.2079 C 125.753 31.2079 125.346 31.3451 124.967 31.5646 L 124.959 31.5691 C 124.637 31.7607 124.324 31.8999 124.019 31.9917 C 123.729 32.068 123.331 32.1141 122.806 32.1141 C 122.301 32.1141 121.824 32.0292 121.373 31.8617 C 120.923 31.6908 120.519 31.4551 120.156 31.1541 C 119.793 30.8523 119.486 30.4993 119.233 30.0927 C 119.193 30.0265 119.188 29.9794 119.19 29.9485 C 119.192 29.9136 119.205 29.8682 119.241 29.817 C 119.318 29.7095 119.48 29.6067 119.694 29.6067 L 128.024 29.6067 L 129.383 29.6067 C 129.957 29.6067 130.479 29.4168 130.887 29.0042 C 131.287 28.5993 131.482 28.0861 131.482 27.5158 L 131.482 27.5087 Z M 125.675 24.0343 C 125.307 23.7179 124.881 23.468 124.39 23.2864 L 124.386 23.2849 C 123.915 23.1075 123.407 23.0163 122.855 23.0163 C 122.295 23.0163 121.786 23.112 121.32 23.297 L 121.308 23.3014 C 120.832 23.481 120.412 23.7339 120.043 24.0606 L 120.036 24.0673 C 119.664 24.3865 119.359 24.7611 119.117 25.1945 C 119.074 25.2709 119.068 25.3276 119.072 25.368 C 119.076 25.4121 119.093 25.4657 119.136 25.5234 C 119.226 25.6442 119.408 25.7544 119.641 25.7544 L 126.09 25.7544 C 126.337 25.7544 126.531 25.6372 126.624 25.5107 C 126.668 25.4506 126.685 25.3965 126.688 25.3541 C 126.691 25.3157 126.679 25.2495 126.632 25.1716 C 126.381 24.7379 126.064 24.3607 125.682 24.0398 L 125.675 24.0343 Z" stroke-linecap="round" />
</g>
<g transform="matrix(1 0 0 1 565.41 525.58)"  >
<path style="stroke: none; stroke-width: 1; stroke-dasharray: none; stroke-linecap: butt; stroke-dashoffset: 0; stroke-linejoin: miter; stroke-miterlimit: 4; fill: rgb(255,255,255); fill-rule: evenodd; opacity: 1;" vector-effect="non-scaling-stroke"  transform=" translate(-142.49, -27.66)" d="M 139.134 35.7245 C 138.103 35.262 137.195 34.6365 136.416 33.8481 L 136.413 33.8443 C 135.643 33.0535 135.036 32.1273 134.591 31.0721 C 134.14 30.0029 133.916 28.8646 133.916 27.664 C 133.916 26.4635 134.14 25.3252 134.591 24.256 C 135.036 23.2008 135.643 22.2745 136.413 21.4838 C 137.193 20.6825 138.103 20.0549 139.137 19.6022 C 140.185 19.1328 141.307 18.9004 142.494 18.9004 C 143.68 18.9004 144.795 19.1265 145.833 19.5849 C 146.866 20.0367 147.771 20.6579 148.541 21.4487 C 149.311 22.2281 149.918 23.1432 150.364 24.1875 C 150.813 25.2418 151.048 26.3651 151.072 27.5511 L 151.072 27.5652 L 151.072 34.1226 C 151.072 34.7201 150.863 35.2536 150.453 35.6839 L 150.444 35.6935 C 150.026 36.1165 149.499 36.3289 148.908 36.3289 C 148.317 36.3289 147.789 36.1152 147.386 35.673 L 147.377 35.6633 C 147.226 35.492 147.106 35.3059 147.016 35.1078 C 146.522 35.4192 145.997 35.6797 145.44 35.8891 C 144.511 36.2386 143.528 36.4112 142.494 36.4112 C 141.308 36.4112 140.188 36.1849 139.14 35.7272 L 139.134 35.7245 Z M 145.56 30.7948 C 145.952 30.3879 146.256 29.9208 146.471 29.3891 L 146.474 29.3833 C 146.697 28.8471 146.81 28.2761 146.81 27.664 C 146.81 27.0519 146.697 26.4881 146.476 25.9654 L 146.473 25.9585 L 146.47 25.9515 C 146.254 25.4104 145.953 24.9475 145.566 24.5557 L 145.56 24.5497 C 145.181 24.1573 144.732 23.8467 144.205 23.6182 L 144.196 23.614 C 143.684 23.3829 143.12 23.2634 142.494 23.2634 C 141.881 23.2634 141.322 23.3822 140.809 23.6139 L 140.8 23.6183 C 140.273 23.8467 139.824 24.1572 139.445 24.5496 C 139.065 24.9442 138.759 25.4124 138.531 25.9613 L 138.529 25.9654 C 138.308 26.4881 138.195 27.0519 138.195 27.664 C 138.195 28.2754 138.308 28.8456 138.53 29.3812 C 138.758 29.9187 139.064 30.3894 139.448 30.7979 C 139.827 31.19 140.277 31.5059 140.804 31.7449 C 141.318 31.967 141.879 32.0811 142.494 32.0811 C 143.122 32.0811 143.688 31.9664 144.2 31.7449 C 144.729 31.5053 145.18 31.1882 145.56 30.7948 Z" stroke-linecap="round" />
</g>
<g transform="matrix(1 0 0 1 583.52 525.6)"  >
<path style="stroke: none; stroke-width: 1; stroke-dasharray: none; stroke-linecap: butt; stroke-dashoffset: 0; stroke-linejoin: miter; stroke-miterlimit: 4; fill: rgb(255,255,255); fill-rule: nonzero; opacity: 1;" vector-effect="non-scaling-stroke"  transform=" translate(-160.61, -27.67)" d="M 160.641 24.7534 C 161.078 24.3114 161.58 23.9663 162.15 23.7159 L 162.159 23.7119 C 162.717 23.4578 163.314 23.3293 163.957 23.3293 L 164.038 23.3293 C 164.62 23.3293 165.144 23.1291 165.571 22.7292 C 166.012 22.316 166.234 21.7795 166.234 21.1725 C 166.234 20.5943 166.048 20.0689 165.654 19.6503 C 165.233 19.1913 164.653 19.0157 164.038 19.0157 L 163.957 19.0157 C 162.724 19.0157 161.554 19.2598 160.453 19.7506 C 159.376 20.2248 158.429 20.8791 157.616 21.7124 C 156.804 22.5357 156.163 23.5004 155.696 24.6003 C 155.223 25.7133 154.988 26.8961 154.988 28.1418 L 154.988 34.172 C 154.988 34.4696 155.043 34.7593 155.161 35.032 L 155.168 35.0486 L 155.176 35.0648 C 155.294 35.3048 155.446 35.5215 155.632 35.7099 L 155.642 35.7199 L 155.652 35.7295 C 155.85 35.9139 156.072 36.0619 156.318 36.1707 L 156.342 36.1811 L 156.366 36.1897 C 156.625 36.2822 156.893 36.3289 157.168 36.3289 C 157.738 36.3289 158.247 36.1207 158.644 35.7049 C 159.053 35.2879 159.25 34.759 159.25 34.172 L 159.25 28.1418 C 159.25 27.4769 159.373 26.8591 159.616 26.2815 C 159.875 25.6892 160.218 25.182 160.641 24.7534 Z" stroke-linecap="round" />
</g>
<g transform="matrix(1 0 0 1 599.78 525.6)"  >
<path style="stroke: none; stroke-width: 1; stroke-dasharray: none; stroke-linecap: butt; stroke-dashoffset: 0; stroke-linejoin: miter; stroke-miterlimit: 4; fill: rgb(255,255,255); fill-rule: nonzero; opacity: 1;" vector-effect="non-scaling-stroke"  transform=" translate(-176.86, -27.67)" d="M 169.276 24.1947 C 169.699 23.1726 170.278 22.2736 171.014 21.5044 C 171.752 20.7339 172.62 20.1274 173.611 19.6853 C 174.617 19.2371 175.695 19.0157 176.839 19.0157 C 177.993 19.0157 179.077 19.2365 180.083 19.6848 C 181.084 20.1261 181.957 20.7319 182.695 21.5026 C 183.444 22.2724 184.024 23.1731 184.437 24.1981 C 184.864 25.2317 185.075 26.3288 185.075 27.4828 L 185.075 34.1885 C 185.075 34.7779 184.877 35.3086 184.464 35.7264 L 184.459 35.7315 L 184.454 35.7365 C 184.043 36.1356 183.529 36.3289 182.961 36.3289 C 182.392 36.3289 181.879 36.136 181.461 35.746 L 181.456 35.7411 L 181.451 35.7361 C 181.024 35.3204 180.813 34.7867 180.813 34.1885 L 180.813 27.5219 C 180.803 26.9374 180.694 26.4017 180.492 25.9085 L 180.49 25.9042 C 180.284 25.3918 180.002 24.9535 179.644 24.5823 L 179.638 24.5757 C 179.291 24.2061 178.879 23.9134 178.397 23.6973 L 178.386 23.6927 C 177.92 23.4747 177.407 23.3623 176.839 23.3623 C 176.268 23.3623 175.751 23.4709 175.282 23.6808 L 175.277 23.6834 C 174.809 23.8875 174.404 24.1731 174.057 24.5427 C 173.709 24.9139 173.43 25.3533 173.222 25.8683 C 173.03 26.361 172.931 26.897 172.931 27.4828 L 172.931 34.1885 C 172.931 34.7779 172.732 35.3086 172.319 35.7264 C 171.915 36.1352 171.401 36.3289 170.832 36.3289 C 170.558 36.3289 170.289 36.2822 170.03 36.1897 L 170.006 36.1811 L 169.983 36.1707 C 169.749 36.0671 169.533 35.9323 169.339 35.7662 L 169.317 35.7472 L 169.297 35.7264 C 169.11 35.538 168.959 35.3213 168.84 35.0813 L 168.832 35.0651 L 168.825 35.0485 C 168.707 34.7758 168.652 34.4861 168.652 34.1885 L 168.652 27.4828 C 168.652 26.3302 168.858 25.2342 169.274 24.2012 L 169.276 24.1947 Z" stroke-linecap="round" />
</g>
<g transform="matrix(1 0 0 1 614.31 513.94)"  >
<path style="stroke: none; stroke-width: 1; stroke-dasharray: none; stroke-linecap: butt; stroke-dashoffset: 0; stroke-linejoin: miter; stroke-miterlimit: 4; fill: rgb(255,255,255); fill-rule: nonzero; opacity: 1;" vector-effect="non-scaling-stroke"  transform=" translate(-191.4, -16.02)" d="M 191.399 13.661 C 191.08 13.661 190.771 13.7231 190.477 13.8482 L 190.464 13.8538 C 190.19 13.977 189.945 14.1475 189.733 14.3624 C 189.527 14.5708 189.366 14.8146 189.247 15.0859 C 189.118 15.3799 189.056 15.6926 189.056 16.0155 C 189.056 16.3385 189.118 16.6512 189.247 16.9452 C 189.364 17.212 189.52 17.4537 189.715 17.6664 L 189.733 17.6856 L 189.752 17.7034 C 189.962 17.9009 190.201 18.0589 190.464 18.1775 L 190.477 18.1829 C 190.771 18.308 191.08 18.3701 191.399 18.3701 C 191.718 18.3701 192.027 18.308 192.318 18.1773 C 192.581 18.0588 192.82 17.9009 193.03 17.7034 L 193.04 17.6945 L 193.049 17.6852 C 193.261 17.4704 193.43 17.2226 193.552 16.9452 C 193.681 16.6512 193.742 16.3385 193.742 16.0155 C 193.742 15.6926 193.681 15.3799 193.552 15.0859 C 193.429 14.8076 193.259 14.5611 193.04 14.3531 C 192.83 14.1427 192.588 13.9753 192.318 13.8538 C 192.027 13.7231 191.718 13.661 191.399 13.661 Z" stroke-linecap="round" />
</g>
<g transform="matrix(1 0 0 1 614.29 525.54)"  >
<path style="stroke: none; stroke-width: 1; stroke-dasharray: none; stroke-linecap: butt; stroke-dashoffset: 0; stroke-linejoin: miter; stroke-miterlimit: 4; fill: rgb(255,255,255); fill-rule: nonzero; opacity: 1;" vector-effect="non-scaling-stroke"  transform=" translate(-191.38, -27.61)" d="M 189.873 19.5258 L 189.884 19.5162 C 190.081 19.3318 190.304 19.1838 190.549 19.075 L 190.556 19.0719 L 190.563 19.069 C 190.835 18.9557 191.121 18.9004 191.416 18.9004 C 192 18.9004 192.518 19.1166 192.917 19.5509 C 193.314 19.971 193.514 20.4922 193.514 21.0737 L 193.514 34.172 C 193.514 34.7646 193.3 35.2908 192.886 35.7099 C 192.481 36.1198 191.971 36.3289 191.399 36.3289 C 190.823 36.3289 190.306 36.1251 189.883 35.7287 L 189.873 35.7195 L 189.863 35.7099 C 189.449 35.2908 189.236 34.7646 189.236 34.172 L 189.236 21.0737 C 189.236 20.7841 189.291 20.5031 189.405 20.2374 C 189.513 19.9744 189.664 19.7372 189.863 19.5358 L 189.873 19.5258 Z" stroke-linecap="round" />
</g>
<g transform="matrix(1 0 0 1 628.41 525.6)"  >
<path style="stroke: none; stroke-width: 1; stroke-dasharray: none; stroke-linecap: butt; stroke-dashoffset: 0; stroke-linejoin: miter; stroke-miterlimit: 4; fill: rgb(255,255,255); fill-rule: nonzero; opacity: 1;" vector-effect="non-scaling-stroke"  transform=" translate(-205.5, -27.67)" d="M 197.907 24.1947 L 197.905 24.2012 C 197.489 25.2342 197.284 26.3302 197.284 27.4828 L 197.284 34.1885 C 197.284 34.4861 197.338 34.7758 197.456 35.0485 L 197.463 35.0651 L 197.471 35.0813 C 197.59 35.3213 197.741 35.538 197.928 35.7264 L 197.948 35.7472 L 197.97 35.7662 C 198.164 35.9323 198.38 36.0671 198.614 36.1707 L 198.637 36.1811 L 198.661 36.1897 C 198.92 36.2822 199.189 36.3289 199.463 36.3289 C 200.032 36.3289 200.546 36.1352 200.95 35.7264 C 201.363 35.3086 201.562 34.7779 201.562 34.1885 L 201.562 27.4828 C 201.562 26.8967 201.661 26.3605 201.854 25.8677 C 202.061 25.353 202.34 24.9137 202.689 24.5427 C 203.036 24.1731 203.44 23.8875 203.908 23.6834 L 203.914 23.6808 C 204.383 23.4709 204.899 23.3623 205.471 23.3623 C 206.038 23.3623 206.551 23.4747 207.017 23.6927 L 207.028 23.6973 C 207.51 23.9134 207.922 24.2061 208.269 24.5757 L 208.275 24.5823 C 208.633 24.9535 208.915 25.3918 209.121 25.9042 L 209.123 25.9085 C 209.326 26.4017 209.434 26.9374 209.444 27.5219 L 209.444 34.1885 C 209.444 34.7867 209.655 35.3204 210.082 35.7361 L 210.087 35.7411 L 210.092 35.746 C 210.51 36.136 211.023 36.3289 211.592 36.3289 C 212.16 36.3289 212.674 36.1356 213.085 35.7365 L 213.09 35.7315 L 213.095 35.7264 C 213.508 35.3086 213.706 34.7779 213.706 34.1885 L 213.706 27.4828 C 213.706 26.3288 213.495 25.2317 213.068 24.1981 C 212.655 23.1731 212.075 22.2724 211.326 21.5026 C 210.588 20.7319 209.715 20.1261 208.714 19.6848 C 207.708 19.2365 206.624 19.0157 205.471 19.0157 C 204.326 19.0157 203.248 19.2371 202.242 19.6853 C 201.251 20.1274 200.383 20.7339 199.645 21.5044 C 198.909 22.2736 198.33 23.1726 197.907 24.1947 Z" stroke-linecap="round" />
</g>
<g transform="matrix(1 0 0 1 648.44 529.07)"  >
<path style="stroke: none; stroke-width: 1; stroke-dasharray: none; stroke-linecap: butt; stroke-dashoffset: 0; stroke-linejoin: miter; stroke-miterlimit: 4; fill: rgb(255,255,255); fill-rule: evenodd; opacity: 1;" vector-effect="non-scaling-stroke"  transform=" translate(-225.53, -31.14)" d="M 217.561 24.2407 L 217.563 24.2346 C 218.02 23.1798 218.638 22.2544 219.419 21.4647 C 220.208 20.6653 221.123 20.0386 222.157 19.5863 C 223.215 19.1177 224.341 18.8851 225.529 18.8851 C 226.726 18.8851 227.858 19.1171 228.916 19.5857 C 229.961 20.0377 230.877 20.6648 231.657 21.4666 C 232.438 22.2573 233.051 23.1841 233.497 24.2407 C 233.948 25.3099 234.172 26.4482 234.172 27.6487 C 234.172 28.5727 234.043 29.4485 233.78 30.2718 C 233.728 30.4333 233.672 30.593 233.612 30.7508 C 233.299 31.5723 233.371 32.596 233.692 33.5408 C 233.952 34.2592 234.074 35.0673 234.074 35.9526 C 234.074 36.9856 233.904 37.9255 233.544 38.7562 C 233.194 39.5734 232.716 40.2722 232.106 40.8394 C 231.506 41.397 230.819 41.819 230.05 42.1032 C 229.288 42.3846 228.496 42.525 227.678 42.525 C 227.231 42.525 226.771 42.4895 226.298 42.4198 C 225.894 42.369 225.497 42.3438 225.106 42.3438 C 224.819 42.3438 224.491 42.3798 224.121 42.458 C 223.834 42.5303 223.539 42.6704 223.235 42.8942 C 223.052 43.0576 222.845 43.1869 222.614 43.2718 C 222.394 43.356 222.166 43.3982 221.931 43.3982 C 221.643 43.3982 221.362 43.3409 221.095 43.2296 L 221.088 43.2267 L 221.081 43.2236 C 220.828 43.1114 220.602 42.9533 220.405 42.7561 C 220.201 42.5627 220.039 42.3338 219.919 42.0772 C 219.786 41.8048 219.719 41.5124 219.719 41.2084 C 219.719 40.7979 219.84 40.4154 220.064 40.0749 L 220.068 40.0682 L 220.073 40.0616 C 220.278 39.7645 220.541 39.5099 220.849 39.2936 C 221.148 39.0829 221.483 38.9049 221.851 38.7562 L 221.858 38.7533 C 222.221 38.611 222.591 38.4923 222.966 38.3972 C 223.352 38.2997 223.736 38.2377 224.116 38.2128 L 224.128 38.2121 L 224.139 38.2117 C 224.483 38.2005 224.821 38.1949 225.155 38.1949 L 225.919 38.1949 L 225.934 38.1955 C 226.172 38.206 226.423 38.2113 226.685 38.2113 C 227.904 38.2113 228.69 37.9762 229.159 37.6198 C 229.59 37.2921 229.845 36.791 229.845 35.9856 C 229.845 35.7735 229.83 35.6106 229.808 35.4898 C 229.792 35.4077 229.775 35.3377 229.757 35.2784 C 229.242 35.5765 228.701 35.8172 228.134 36.0001 C 227.312 36.2655 226.442 36.3959 225.529 36.3959 C 224.343 36.3959 223.218 36.1696 222.162 35.7131 L 222.153 35.7093 C 221.123 35.2472 220.211 34.6227 219.422 33.8366 L 219.419 33.8328 C 218.638 33.0431 218.02 32.1177 217.563 31.0629 L 217.561 31.0568 C 217.11 29.9876 216.886 28.8493 216.886 27.6487 C 216.886 26.4482 217.11 25.3099 217.561 24.2407 Z M 229.575 25.9501 L 229.574 25.946 C 229.347 25.4006 229.038 24.9344 228.649 24.5404 C 228.26 24.1464 227.799 23.8343 227.26 23.6046 L 227.251 23.6006 C 226.726 23.3676 226.155 23.2481 225.529 23.2481 C 224.916 23.2481 224.35 23.3669 223.823 23.6005 L 223.818 23.6029 C 223.29 23.832 222.833 24.1443 222.441 24.5404 C 222.051 24.9359 221.736 25.4046 221.498 25.9528 C 221.277 26.4748 221.165 27.0377 221.165 27.6487 C 221.165 28.2582 221.276 28.8268 221.498 29.3609 C 221.735 29.8972 222.05 30.3677 222.444 30.7766 C 222.836 31.1718 223.293 31.4891 223.821 31.7287 C 224.347 31.952 224.914 32.0658 225.529 32.0658 C 226.157 32.0658 226.73 31.9512 227.255 31.7279 C 227.795 31.4877 228.256 31.1703 228.646 30.7766 C 229.039 30.3686 229.348 29.8997 229.575 29.3655 C 229.797 28.83 229.91 28.2599 229.91 27.6487 C 229.91 27.0366 229.797 26.4728 229.575 25.9501 Z" stroke-linecap="round" />
</g>
<g transform="matrix(1 0 0 1 545.69 557.1)"  >
<path style="stroke: none; stroke-width: 1; stroke-dasharray: none; stroke-linecap: butt; stroke-dashoffset: 0; stroke-linejoin: miter; stroke-miterlimit: 4; fill: rgb(255,255,255); fill-rule: evenodd; opacity: 1;" vector-effect="non-scaling-stroke"  transform=" translate(-122.77, -59.17)" d="M 116.696 65.3631 C 117.475 66.1515 118.383 66.7769 119.414 67.2395 L 119.42 67.2422 C 120.467 67.6998 121.588 67.9262 122.774 67.9262 C 123.807 67.9262 124.791 67.7536 125.72 67.4041 C 126.276 67.1946 126.802 66.9342 127.296 66.6227 C 127.386 66.8209 127.506 67.0069 127.657 67.1782 L 127.665 67.188 C 128.069 67.6301 128.597 67.8438 129.188 67.8438 C 129.779 67.8438 130.306 67.6315 130.724 67.2085 L 130.733 67.1988 C 131.142 66.7685 131.352 66.235 131.352 65.6375 L 131.352 59.0801 L 131.352 59.066 C 131.328 57.88 131.093 56.7567 130.643 55.7024 C 130.198 54.6582 129.591 53.7432 128.821 52.9638 C 128.051 52.173 127.146 51.5517 126.113 51.0999 C 125.075 50.6415 123.96 50.4153 122.774 50.4153 C 121.586 50.4153 120.465 50.6477 119.417 51.1171 C 118.382 51.5698 117.472 52.1974 116.692 52.9987 C 115.923 53.7895 115.316 54.7157 114.871 55.771 C 114.42 56.8401 114.196 57.9784 114.196 59.179 C 114.196 60.3795 114.42 61.5178 114.871 62.587 C 115.316 63.6422 115.923 64.5685 116.692 65.3592 L 116.696 65.3631 Z M 126.751 60.904 C 126.535 61.4358 126.232 61.9028 125.839 62.3097 C 125.46 62.7031 125.009 63.0202 124.48 63.2598 C 123.968 63.4814 123.402 63.5961 122.774 63.5961 C 122.159 63.5961 121.598 63.4819 121.084 63.2599 C 120.556 63.0208 120.107 62.7049 119.728 62.3129 C 119.343 61.9043 119.038 61.4336 118.81 60.8961 C 118.587 60.3605 118.475 59.7903 118.475 59.179 C 118.475 58.5668 118.587 58.003 118.809 57.4803 L 118.811 57.4762 C 119.039 56.9273 119.344 56.4591 119.725 56.0646 C 120.103 55.6722 120.553 55.3617 121.079 55.1332 L 121.089 55.1289 C 121.602 54.8971 122.161 54.7784 122.774 54.7784 C 123.4 54.7784 123.964 54.8978 124.475 55.1289 L 124.485 55.1331 C 125.012 55.3616 125.461 55.6722 125.839 56.0646 L 125.845 56.0706 C 126.232 56.4624 126.534 56.9253 126.75 57.4664 L 126.752 57.4734 L 126.755 57.4803 C 126.977 58.003 127.089 58.5668 127.089 59.179 C 127.089 59.7911 126.977 60.362 126.753 60.8982 L 126.751 60.904 Z" stroke-linecap="round" />
</g>
<g transform="matrix(1 0 0 1 566.82 554.2)"  >
<path style="stroke: none; stroke-width: 1; stroke-dasharray: none; stroke-linecap: butt; stroke-dashoffset: 0; stroke-linejoin: miter; stroke-miterlimit: 4; fill: rgb(255,255,255); fill-rule: evenodd; opacity: 1;" vector-effect="non-scaling-stroke"  transform=" translate(-143.91, -56.28)" d="M 138.937 45.304 C 139.335 45.7272 139.53 46.2538 139.53 46.8385 L 139.53 52.1277 C 139.826 51.859 140.145 51.6191 140.486 51.4084 L 140.493 51.4044 C 141 51.0986 141.543 50.8608 142.12 50.6907 L 142.123 50.6896 C 142.716 50.5182 143.318 50.4318 143.927 50.4318 C 145.114 50.4318 146.24 50.6642 147.297 51.1324 C 148.342 51.5845 149.258 52.2115 150.039 53.0133 C 150.82 53.804 151.433 54.7308 151.879 55.7874 C 152.33 56.8566 152.553 57.9949 152.553 59.1954 C 152.553 60.396 152.33 61.5343 151.879 62.6035 L 151.878 62.6061 C 151.431 63.6524 150.818 64.5733 150.037 65.3631 C 149.257 66.1528 148.343 66.7784 147.3 67.2406 L 147.294 67.2433 C 146.238 67.6998 145.113 67.9262 143.927 67.9262 C 142.741 67.9262 141.616 67.6998 140.559 67.2433 L 140.553 67.2407 C 139.512 66.7789 138.594 66.1543 137.804 65.3668 L 137.8 65.3631 C 137.021 64.5747 136.403 63.6559 135.946 62.6123 L 135.942 62.6035 C 135.491 61.5344 135.268 60.396 135.268 59.1954 L 135.268 46.8385 C 135.268 46.5435 135.321 46.2563 135.437 45.9857 C 135.543 45.7271 135.692 45.4934 135.886 45.2943 C 136.078 45.0856 136.306 44.9215 136.565 44.8069 C 136.835 44.6875 137.121 44.6323 137.415 44.6323 C 138.011 44.6323 138.538 44.8548 138.937 45.304 Z M 147.957 57.4803 L 147.955 57.4762 C 147.728 56.9308 147.42 56.4646 147.031 56.0706 C 146.641 55.6766 146.181 55.3645 145.642 55.1349 C 145.113 54.9097 144.544 54.7948 143.927 54.7948 C 143.31 54.7948 142.74 54.9097 142.212 55.1349 C 141.673 55.3645 141.212 55.6766 140.823 56.0706 C 140.432 56.4662 140.117 56.9348 139.879 57.4831 C 139.659 58.0036 139.546 58.5718 139.546 59.1954 C 139.546 59.8049 139.658 60.3736 139.879 60.9078 C 140.117 61.4437 140.431 61.9072 140.823 62.3038 C 141.213 62.6988 141.676 63.0173 142.217 63.258 C 142.744 63.4819 143.311 63.5961 143.927 63.5961 C 144.542 63.5961 145.11 63.4819 145.637 63.258 C 146.178 63.0173 146.64 62.6988 147.031 62.3038 C 147.422 61.9082 147.73 61.4464 147.956 60.9126 C 148.179 60.377 148.291 59.8068 148.291 59.1954 C 148.291 58.5707 148.178 58.0017 147.957 57.4803 Z" stroke-linecap="round" />
</g>
<g transform="matrix(1 0 0 1 585.09 557.19)"  >
<path style="stroke: none; stroke-width: 1; stroke-dasharray: none; stroke-linecap: butt; stroke-dashoffset: 0; stroke-linejoin: miter; stroke-miterlimit: 4; fill: rgb(255,255,255); fill-rule: nonzero; opacity: 1;" vector-effect="non-scaling-stroke"  transform=" translate(-162.17, -59.27)" d="M 156.879 59.6723 C 157.352 60.1635 157.904 60.5582 158.531 60.8566 L 158.541 60.8614 C 159.191 61.1581 159.893 61.3028 160.635 61.3028 L 163.647 61.3028 C 163.83 61.3121 164.009 61.3448 164.184 61.4014 C 164.352 61.4555 164.491 61.5292 164.607 61.6188 L 164.614 61.6247 L 164.622 61.6303 C 164.725 61.7058 164.804 61.7987 164.862 61.9171 L 164.868 61.9295 L 164.875 61.9416 C 164.926 62.0358 164.967 62.1766 164.967 62.3918 C 164.967 62.6167 164.926 62.7835 164.865 62.9102 C 164.788 63.0567 164.69 63.1791 164.567 63.2821 C 164.438 63.3916 164.295 63.4752 164.138 63.5349 C 163.969 63.5878 163.806 63.6125 163.647 63.6125 L 157.135 63.6125 C 156.586 63.6125 156.088 63.8026 155.697 64.1985 C 155.288 64.6129 155.118 65.1553 155.118 65.7364 C 155.118 66.3196 155.288 66.8582 155.677 67.286 C 156.063 67.711 156.567 67.9262 157.135 67.9262 L 163.891 67.9262 C 164.643 67.9262 165.352 67.7824 166.011 67.4878 C 166.664 67.2009 167.234 66.8098 167.713 66.3122 L 167.719 66.3057 C 168.192 65.8016 168.559 65.2217 168.819 64.5707 C 169.093 63.9012 169.23 63.1949 169.23 62.4577 C 169.23 61.7305 169.093 61.0305 168.82 60.363 C 168.561 59.7034 168.195 59.1181 167.722 58.6131 C 167.255 58.1029 166.695 57.7035 166.051 57.4144 C 165.391 57.1067 164.678 56.9563 163.924 56.9563 L 160.652 56.9563 C 160.518 56.9563 160.395 56.9313 160.278 56.8824 C 160.156 56.8271 160.044 56.7561 159.941 56.6683 C 159.863 56.5853 159.799 56.4869 159.749 56.3673 C 159.702 56.255 159.673 56.119 159.673 55.9497 C 159.673 55.8113 159.699 55.6957 159.744 55.5943 L 159.749 55.5815 C 159.802 55.4535 159.872 55.3498 159.957 55.2633 L 159.966 55.2547 L 159.974 55.2458 C 160.065 55.1475 160.162 55.0782 160.268 55.0305 L 160.276 55.027 L 160.283 55.0234 C 160.392 54.9714 160.511 54.9431 160.652 54.9431 L 166.366 54.9431 C 166.65 54.9431 166.924 54.8832 167.182 54.7615 C 167.426 54.6464 167.641 54.4878 167.823 54.2873 C 168.01 54.0826 168.155 53.8489 168.253 53.5888 C 168.362 53.3169 168.416 53.031 168.416 52.7369 C 168.416 52.1205 168.22 51.5495 167.745 51.1428 C 167.329 50.7866 166.83 50.613 166.284 50.613 L 160.635 50.613 C 159.917 50.613 159.233 50.7511 158.59 51.031 C 157.955 51.2961 157.396 51.6708 156.918 52.1546 C 156.453 52.6257 156.084 53.1774 155.812 53.8032 C 155.533 54.446 155.395 55.1311 155.395 55.8508 C 155.395 56.5755 155.525 57.2697 155.788 57.9279 C 156.046 58.5762 156.406 59.1549 156.867 59.659 L 156.873 59.6658 L 156.879 59.6723 Z" stroke-linecap="round" />
</g>
<g transform="matrix(1 0 0 1 528.42 522.64)"  >
<path style="stroke: none; stroke-width: 1; stroke-dasharray: none; stroke-linecap: butt; stroke-dashoffset: 0; stroke-linejoin: miter; stroke-miterlimit: 4; fill: rgb(255,255,255); fill-rule: nonzero; opacity: 1;" vector-effect="non-scaling-stroke"  transform=" translate(-105.5, -24.72)" d="M 97.9629 29.1637 L 97.9819 23.076 L 97.9819 23.0677 L 98.0053 15.5385 C 98.0097 14.1321 99.1398 12.9956 100.529 13 C 101.919 13.0044 103.042 14.1481 103.038 15.5545 L 102.995 29.1797 C 102.991 30.3565 103.931 31.3135 105.094 31.3172 L 110.533 31.3409 C 111.922 31.3454 113.045 32.489 113.041 33.8954 C 113.037 35.3018 111.907 36.4383 110.517 36.4339 L 105.078 36.4102 C 101.136 36.3976 97.9505 33.1532 97.9629 29.1637 Z" stroke-linecap="round" />
</g>
<g transform="matrix(1 0 0 1 528.42 554.13)"  >
<path style="stroke: none; stroke-width: 1; stroke-dasharray: none; stroke-linecap: butt; stroke-dashoffset: 0; stroke-linejoin: miter; stroke-miterlimit: 4; fill: rgb(255,255,255); fill-rule: nonzero; opacity: 1;" vector-effect="non-scaling-stroke"  transform=" translate(-105.5, -56.21)" d="M 97.9818 54.5684 L 97.9629 60.6561 C 97.9505 64.6456 101.136 67.89 105.078 67.9026 L 110.517 67.9263 C 111.907 67.9307 113.037 66.7942 113.041 65.3878 C 113.045 63.9815 111.922 62.8378 110.533 62.8333 L 105.094 62.8097 C 103.931 62.806 102.991 61.8489 102.995 60.6721 L 103.038 47.0469 C 103.042 45.6406 101.919 44.4969 100.529 44.4924 C 99.1397 44.488 98.0097 45.6245 98.0053 47.0309 L 97.9819 54.5602 L 97.9818 54.5684 Z" stroke-linecap="round" />
</g>
<g transform="matrix(1 0 0 1 575.51 577.43)"  >
<path style="stroke: none; stroke-width: 1; stroke-dasharray: none; stroke-linecap: butt; stroke-dashoffset: 0; stroke-linejoin: miter; stroke-miterlimit: 4; fill: rgb(255,255,255); fill-rule: evenodd; opacity: 1;" vector-effect="non-scaling-stroke"  transform=" translate(-152.6, -79.5)" d="M 155.086 81.3631 C 155.332 80.8397 155.456 80.2186 155.456 79.5 C 155.456 78.7814 155.332 78.1603 155.086 77.6369 C 154.839 77.1134 154.5 76.7098 154.07 76.4258 C 153.64 76.1419 153.148 76 152.596 76 C 152.043 76 151.552 76.1419 151.121 76.4258 C 150.691 76.7098 150.352 77.1134 150.106 77.6369 C 149.859 78.1603 149.735 78.7814 149.735 79.5 C 149.735 80.2186 149.859 80.8397 150.106 81.3631 C 150.352 81.8866 150.691 82.2902 151.121 82.5742 C 151.552 82.8581 152.043 83 152.596 83 C 153.148 83 153.64 82.8581 154.07 82.5742 C 154.5 82.2902 154.839 81.8866 155.086 81.3631 Z M 154.415 78.0062 C 154.603 78.4121 154.696 78.91 154.696 79.5 C 154.696 80.09 154.603 80.5879 154.415 80.9938 C 154.229 81.3997 153.977 81.7069 153.659 81.9154 C 153.342 82.1239 152.988 82.2281 152.596 82.2281 C 152.203 82.2281 151.848 82.1239 151.529 81.9154 C 151.213 81.7069 150.961 81.3997 150.773 80.9938 C 150.588 80.5879 150.495 80.09 150.495 79.5 C 150.495 78.91 150.588 78.4121 150.773 78.0062 C 150.961 77.6003 151.213 77.2931 151.529 77.0846 C 151.848 76.8761 152.203 76.7719 152.596 76.7719 C 152.988 76.7719 153.342 76.8761 153.659 77.0846 C 153.977 77.2931 154.229 77.6003 154.415 78.0062 Z" stroke-linecap="round" />
</g>
<g transform="matrix(1 0 0 1 522.78 577.43)"  >
<path style="stroke: none; stroke-width: 1; stroke-dasharray: none; stroke-linecap: butt; stroke-dashoffset: 0; stroke-linejoin: miter; stroke-miterlimit: 4; fill: rgb(255,255,255); fill-rule: nonzero; opacity: 1;" vector-effect="non-scaling-stroke"  transform=" translate(-99.86, -79.5)" d="M 97.9629 82.9069 L 97.9629 76.0932 L 98.7475 76.0932 L 98.7475 82.1749 L 101.76 82.1749 L 101.76 82.9069 L 97.9629 82.9069 Z" stroke-linecap="round" />
</g>
<g transform="matrix(1 0 0 1 528.67 577.43)"  >
<path style="stroke: none; stroke-width: 1; stroke-dasharray: none; stroke-linecap: butt; stroke-dashoffset: 0; stroke-linejoin: miter; stroke-miterlimit: 4; fill: rgb(255,255,255); fill-rule: nonzero; opacity: 1;" vector-effect="non-scaling-stroke"  transform=" translate(-105.76, -79.5)" d="M 103.776 82.9069 L 103.776 76.0932 L 107.687 76.0932 L 107.687 76.8251 L 104.561 76.8251 L 104.561 79.1274 L 107.484 79.1274 L 107.484 79.8593 L 104.561 79.8593 L 104.561 82.1749 L 107.738 82.1749 L 107.738 82.9069 L 103.776 82.9069 Z" stroke-linecap="round" />
</g>
<g transform="matrix(1 0 0 1 535.04 577.43)"  >
<path style="stroke: none; stroke-width: 1; stroke-dasharray: none; stroke-linecap: butt; stroke-dashoffset: 0; stroke-linejoin: miter; stroke-miterlimit: 4; fill: rgb(255,255,255); fill-rule: evenodd; opacity: 1;" vector-effect="non-scaling-stroke"  transform=" translate(-112.13, -79.5)" d="M 109.346 82.9069 L 110.169 82.9069 L 110.82 80.9772 L 113.441 80.9772 L 114.092 82.9069 L 114.915 82.9069 L 112.535 76.0932 L 111.726 76.0932 L 109.346 82.9069 Z M 113.194 80.2453 L 112.156 77.1711 L 112.105 77.1711 L 111.067 80.2453 L 113.194 80.2453 Z" stroke-linecap="round" />
</g>
<g transform="matrix(1 0 0 1 541.96 577.43)"  >
<path style="stroke: none; stroke-width: 1; stroke-dasharray: none; stroke-linecap: butt; stroke-dashoffset: 0; stroke-linejoin: miter; stroke-miterlimit: 4; fill: rgb(255,255,255); fill-rule: evenodd; opacity: 1;" vector-effect="non-scaling-stroke"  transform=" translate(-119.05, -79.5)" d="M 116.726 82.9069 L 116.726 76.0932 L 118.915 76.0932 C 119.422 76.0932 119.837 76.1841 120.162 76.366 C 120.487 76.5456 120.727 76.7929 120.883 77.1079 C 121.039 77.4228 121.117 77.7811 121.117 78.1825 C 121.117 78.584 121.039 78.94 120.883 79.2505 C 120.727 79.561 120.488 79.805 120.165 79.9824 C 120.085 80.0261 119.998 80.0644 119.907 80.0972 L 121.371 82.9069 L 120.459 82.9069 L 119.093 80.242 C 119.039 80.2442 118.984 80.2453 118.928 80.2453 L 117.511 80.2453 L 117.511 82.9069 L 116.726 82.9069 Z M 118.903 79.5 L 117.511 79.5 L 117.511 76.8251 L 118.89 76.8251 C 119.24 76.8251 119.522 76.8817 119.735 76.9948 C 119.948 77.1057 120.103 77.2631 120.2 77.4672 C 120.297 77.6712 120.345 77.9097 120.345 78.1825 C 120.345 78.4553 120.297 78.6904 120.2 78.8878 C 120.105 79.083 119.951 79.2338 119.738 79.3403 C 119.527 79.4468 119.249 79.5 118.903 79.5 Z" stroke-linecap="round" />
</g>
<g transform="matrix(1 0 0 1 548.71 577.43)"  >
<path style="stroke: none; stroke-width: 1; stroke-dasharray: none; stroke-linecap: butt; stroke-dashoffset: 0; stroke-linejoin: miter; stroke-miterlimit: 4; fill: rgb(255,255,255); fill-rule: nonzero; opacity: 1;" vector-effect="non-scaling-stroke"  transform=" translate(-125.8, -79.5)" d="M 128.365 82.9069 L 128.365 76.0932 L 127.593 76.0932 L 127.593 81.4563 L 127.53 81.4563 L 123.986 76.0932 L 123.227 76.0932 L 123.227 82.9069 L 124.011 82.9069 L 124.011 77.557 L 124.075 77.557 L 127.606 82.9069 L 128.365 82.9069 Z" stroke-linecap="round" />
</g>
<g transform="matrix(1 0 0 1 562.24 577.43)"  >
<path style="stroke: none; stroke-width: 1; stroke-dasharray: none; stroke-linecap: butt; stroke-dashoffset: 0; stroke-linejoin: miter; stroke-miterlimit: 4; fill: rgb(255,255,255); fill-rule: nonzero; opacity: 1;" vector-effect="non-scaling-stroke"  transform=" translate(-139.32, -79.5)" d="M 137.344 76.0932 L 137.344 82.9069 L 141.305 82.9069 L 141.305 82.1749 L 138.128 82.1749 L 138.128 79.8593 L 141.052 79.8593 L 141.052 79.1274 L 138.128 79.1274 L 138.128 76.8251 L 141.254 76.8251 L 141.254 76.0932 L 137.344 76.0932 Z" stroke-linecap="round" />
</g>
<g transform="matrix(1 0 0 1 568.61 577.43)"  >
<path style="stroke: none; stroke-width: 1; stroke-dasharray: none; stroke-linecap: butt; stroke-dashoffset: 0; stroke-linejoin: miter; stroke-miterlimit: 4; fill: rgb(255,255,255); fill-rule: nonzero; opacity: 1;" vector-effect="non-scaling-stroke"  transform=" translate(-145.7, -79.5)" d="M 143.736 76.0932 L 145.66 81.8289 L 145.736 81.8289 L 147.659 76.0932 L 148.482 76.0932 L 146.103 82.9069 L 145.293 82.9069 L 142.913 76.0932 L 143.736 76.0932 Z" stroke-linecap="round" />
</g>
<g transform="matrix(1 0 0 1 582.39 577.43)"  >
<path style="stroke: none; stroke-width: 1; stroke-dasharray: none; stroke-linecap: butt; stroke-dashoffset: 0; stroke-linejoin: miter; stroke-miterlimit: 4; fill: rgb(255,255,255); fill-rule: nonzero; opacity: 1;" vector-effect="non-scaling-stroke"  transform=" translate(-159.48, -79.5)" d="M 157.577 82.9069 L 157.577 76.0932 L 158.362 76.0932 L 158.362 82.1749 L 161.374 82.1749 L 161.374 82.9069 L 157.577 82.9069 Z" stroke-linecap="round" />
</g>
<g transform="matrix(1 0 0 1 587.92 577.43)"  >
<path style="stroke: none; stroke-width: 1; stroke-dasharray: none; stroke-linecap: butt; stroke-dashoffset: 0; stroke-linejoin: miter; stroke-miterlimit: 4; fill: rgb(255,255,255); fill-rule: nonzero; opacity: 1;" vector-effect="non-scaling-stroke"  transform=" translate(-165.01, -79.5)" d="M 164.971 81.8289 L 163.047 76.0932 L 162.225 76.0932 L 164.604 82.9069 L 165.414 82.9069 L 167.793 76.0932 L 166.97 76.0932 L 165.047 81.8289 L 164.971 81.8289 Z" stroke-linecap="round" />
</g>
<g transform="matrix(1 0 0 1 594.5 577.43)"  >
<path style="stroke: none; stroke-width: 1; stroke-dasharray: none; stroke-linecap: butt; stroke-dashoffset: 0; stroke-linejoin: miter; stroke-miterlimit: 4; fill: rgb(255,255,255); fill-rule: nonzero; opacity: 1;" vector-effect="non-scaling-stroke"  transform=" translate(-171.58, -79.5)" d="M 169.604 82.9069 L 169.604 76.0932 L 173.515 76.0932 L 173.515 76.8251 L 170.389 76.8251 L 170.389 79.1274 L 173.312 79.1274 L 173.312 79.8593 L 170.389 79.8593 L 170.389 82.1749 L 173.565 82.1749 L 173.565 82.9069 L 169.604 82.9069 Z" stroke-linecap="round" />
</g>
<g transform="matrix(1 0 0 1 607.57 577.43)"  >
<path style="stroke: none; stroke-width: 1; stroke-dasharray: none; stroke-linecap: butt; stroke-dashoffset: 0; stroke-linejoin: miter; stroke-miterlimit: 4; fill: rgb(255,255,255); fill-rule: evenodd; opacity: 1;" vector-effect="non-scaling-stroke"  transform=" translate(-184.66, -79.5)" d="M 182.338 82.9069 L 182.338 76.0932 L 184.527 76.0932 C 185.033 76.0932 185.449 76.1841 185.774 76.366 C 186.098 76.5456 186.339 76.7929 186.495 77.1079 C 186.651 77.4228 186.729 77.7811 186.729 78.1825 C 186.729 78.584 186.651 78.94 186.495 79.2505 C 186.339 79.561 186.1 79.805 185.777 79.9824 C 185.696 80.0261 185.61 80.0644 185.518 80.0972 L 186.982 82.9069 L 186.071 82.9069 L 184.705 80.242 C 184.651 80.2442 184.596 80.2453 184.54 80.2453 L 183.122 80.2453 L 183.122 82.9069 L 182.338 82.9069 Z M 184.514 79.5 L 183.122 79.5 L 183.122 76.8251 L 184.502 76.8251 C 184.852 76.8251 185.133 76.8817 185.347 76.9948 C 185.56 77.1057 185.715 77.2631 185.812 77.4672 C 185.909 77.6712 185.957 77.9097 185.957 78.1825 C 185.957 78.4553 185.909 78.6904 185.812 78.8878 C 185.717 79.083 185.563 79.2338 185.35 79.3403 C 185.139 79.4468 184.86 79.5 184.514 79.5 Z" stroke-linecap="round" />
</g>
<g transform="matrix(1 0 0 1 613.73 577.43)"  >
<path style="stroke: none; stroke-width: 1; stroke-dasharray: none; stroke-linecap: butt; stroke-dashoffset: 0; stroke-linejoin: miter; stroke-miterlimit: 4; fill: rgb(255,255,255); fill-rule: nonzero; opacity: 1;" vector-effect="non-scaling-stroke"  transform=" translate(-190.82, -79.5)" d="M 188.838 76.0932 L 188.838 82.9069 L 192.8 82.9069 L 192.8 82.1749 L 189.623 82.1749 L 189.623 79.8593 L 192.547 79.8593 L 192.547 79.1274 L 189.623 79.1274 L 189.623 76.8251 L 192.749 76.8251 L 192.749 76.0932 L 188.838 76.0932 Z" stroke-linecap="round" />
</g>
<g transform="matrix(1 0 0 1 618.27 577.43)"  >
<path style="stroke: none; stroke-width: 1; stroke-dasharray: none; stroke-linecap: butt; stroke-dashoffset: 0; stroke-linejoin: miter; stroke-miterlimit: 4; fill: rgb(255,255,255); fill-rule: nonzero; opacity: 1;" vector-effect="non-scaling-stroke"  transform=" translate(-195.36, -79.5)" d="M 195.75 76.0932 L 195.75 82.9069 L 194.965 82.9069 L 194.965 76.0932 L 195.75 76.0932 Z" stroke-linecap="round" />
</g>
<g transform="matrix(1 0 0 1 623.61 577.43)"  >
<path style="stroke: none; stroke-width: 1; stroke-dasharray: none; stroke-linecap: butt; stroke-dashoffset: 0; stroke-linejoin: miter; stroke-miterlimit: 4; fill: rgb(255,255,255); fill-rule: nonzero; opacity: 1;" vector-effect="non-scaling-stroke"  transform=" translate(-200.69, -79.5)" d="M 203.263 82.9069 L 203.263 76.0932 L 202.491 76.0932 L 202.491 81.4563 L 202.428 81.4563 L 198.884 76.0932 L 198.125 76.0932 L 198.125 82.9069 L 198.91 82.9069 L 198.91 77.557 L 198.973 77.557 L 202.504 82.9069 L 203.263 82.9069 Z" stroke-linecap="round" />
</g>
<g transform="matrix(1 0 0 1 630.78 577.43)"  >
<path style="stroke: none; stroke-width: 1; stroke-dasharray: none; stroke-linecap: butt; stroke-dashoffset: 0; stroke-linejoin: miter; stroke-miterlimit: 4; fill: rgb(255,255,255); fill-rule: nonzero; opacity: 1;" vector-effect="non-scaling-stroke"  transform=" translate(-207.86, -79.5)" d="M 205.901 76.0932 L 207.825 81.8289 L 207.9 81.8289 L 209.824 76.0932 L 210.647 76.0932 L 208.267 82.9069 L 207.458 82.9069 L 205.078 76.0932 L 205.901 76.0932 Z" stroke-linecap="round" />
</g>
<g transform="matrix(1 0 0 1 637.35 577.43)"  >
<path style="stroke: none; stroke-width: 1; stroke-dasharray: none; stroke-linecap: butt; stroke-dashoffset: 0; stroke-linejoin: miter; stroke-miterlimit: 4; fill: rgb(255,255,255); fill-rule: nonzero; opacity: 1;" vector-effect="non-scaling-stroke"  transform=" translate(-214.44, -79.5)" d="M 212.458 76.0932 L 212.458 82.9069 L 216.419 82.9069 L 216.419 82.1749 L 213.243 82.1749 L 213.243 79.8593 L 216.166 79.8593 L 216.166 79.1274 L 213.243 79.1274 L 213.243 76.8251 L 216.369 76.8251 L 216.369 76.0932 L 212.458 76.0932 Z" stroke-linecap="round" />
</g>
<g transform="matrix(1 0 0 1 644.07 577.43)"  >
<path style="stroke: none; stroke-width: 1; stroke-dasharray: none; stroke-linecap: butt; stroke-dashoffset: 0; stroke-linejoin: miter; stroke-miterlimit: 4; fill: rgb(255,255,255); fill-rule: nonzero; opacity: 1;" vector-effect="non-scaling-stroke"  transform=" translate(-221.15, -79.5)" d="M 223.723 76.0932 L 223.723 82.9069 L 222.963 82.9069 L 219.433 77.557 L 219.369 77.557 L 219.369 82.9069 L 218.585 82.9069 L 218.585 76.0932 L 219.344 76.0932 L 222.888 81.4563 L 222.951 81.4563 L 222.951 76.0932 L 223.723 76.0932 Z" stroke-linecap="round" />
</g>
<g transform="matrix(1 0 0 1 651.08 577.43)"  >
<path style="stroke: none; stroke-width: 1; stroke-dasharray: none; stroke-linecap: butt; stroke-dashoffset: 0; stroke-linejoin: miter; stroke-miterlimit: 4; fill: rgb(255,255,255); fill-rule: nonzero; opacity: 1;" vector-effect="non-scaling-stroke"  transform=" translate(-228.17, -79.5)" d="M 225.74 76.0932 L 225.74 76.8251 L 227.778 76.8251 L 227.778 82.9069 L 228.563 82.9069 L 228.563 76.8251 L 230.6 76.8251 L 230.6 76.0932 L 225.74 76.0932 Z" stroke-linecap="round" />
</g>
<g transform="matrix(1 0 0 1 554.38 580.18)"  >
<path style="stroke: none; stroke-width: 1; stroke-dasharray: none; stroke-linecap: butt; stroke-dashoffset: 0; stroke-linejoin: miter; stroke-miterlimit: 4; fill: rgb(255,255,255); fill-rule: nonzero; opacity: 1;" vector-effect="non-scaling-stroke"  transform=" translate(-131.46, -82.26)" d="M 131.462 82.8714 C 131.296 82.8714 131.154 82.8111 131.035 82.6905 C 130.917 82.5698 130.857 82.4252 130.857 82.2567 C 130.857 82.0882 130.917 81.9435 131.035 81.8228 C 131.154 81.702 131.296 81.6416 131.461 81.6415 C 131.627 81.6415 131.769 81.7017 131.888 81.8224 C 132.006 81.9431 132.066 82.0877 132.066 82.2562 C 132.066 82.3678 132.038 82.4703 131.982 82.5637 C 131.928 82.6571 131.856 82.7323 131.764 82.7892 C 131.674 82.8439 131.574 82.8713 131.462 82.8714 Z" stroke-linecap="round" />
</g>
<g transform="matrix(1 0 0 1 599.5 580.16)"  >
<path style="stroke: none; stroke-width: 1; stroke-dasharray: none; stroke-linecap: butt; stroke-dashoffset: 0; stroke-linejoin: miter; stroke-miterlimit: 4; fill: rgb(255,255,255); fill-rule: nonzero; opacity: 1;" vector-effect="non-scaling-stroke"  transform=" translate(-176.59, -82.24)" d="M 176.586 82.853 C 176.421 82.8531 176.279 82.7928 176.16 82.6721 C 176.041 82.5515 175.982 82.4069 175.982 82.2383 C 175.982 82.0698 176.041 81.9252 176.16 81.8044 C 176.278 81.6837 176.42 81.6232 176.586 81.6232 C 176.751 81.6231 176.894 81.6834 177.012 81.8041 C 177.131 81.9247 177.19 82.0693 177.19 82.2378 C 177.19 82.3494 177.162 82.4519 177.106 82.5453 C 177.053 82.6387 176.98 82.7139 176.888 82.7709 C 176.799 82.8256 176.698 82.853 176.586 82.853 Z" stroke-linecap="round" />
</g>
<g transform="matrix(1 0 0 1 656.27 580.14)"  >
<path style="stroke: none; stroke-width: 1; stroke-dasharray: none; stroke-linecap: butt; stroke-dashoffset: 0; stroke-linejoin: miter; stroke-miterlimit: 4; fill: rgb(255,255,255); fill-rule: nonzero; opacity: 1;" vector-effect="non-scaling-stroke"  transform=" translate(-233.36, -82.22)" d="M 233.359 82.8299 C 233.193 82.83 233.051 82.7697 232.933 82.649 C 232.814 82.5284 232.755 82.3838 232.755 82.2153 C 232.755 82.0467 232.814 81.9021 232.932 81.7813 C 233.051 81.6606 233.193 81.6002 233.359 81.6001 C 233.524 81.6 233.666 81.6603 233.785 81.781 C 233.903 81.9016 233.963 82.0462 233.963 82.2148 C 233.963 82.3264 233.935 82.4289 233.879 82.5223 C 233.825 82.6157 233.753 82.6908 233.661 82.7478 C 233.572 82.8025 233.471 82.8299 233.359 82.8299 Z" stroke-linecap="round" />
</g>
<g transform="matrix(1 0 0 1 556.78 501.43)"  >
<path style="stroke: none; stroke-width: 1; stroke-dasharray: none; stroke-linecap: butt; stroke-dashoffset: 0; stroke-linejoin: miter; stroke-miterlimit: 4; fill: rgb(255,255,255); fill-rule: evenodd; opacity: 1;" vector-effect="non-scaling-stroke"  transform=" translate(-133.87, -3.5)" d="M 136.504 5.36312 C 136.765 4.83967 136.895 4.21863 136.895 3.5 C 136.895 2.78137 136.765 2.16033 136.504 1.63688 C 136.242 1.11344 135.884 0.709759 135.429 0.425856 C 134.973 0.141952 134.453 0 133.868 0 C 133.283 0 132.763 0.141952 132.307 0.425856 C 131.852 0.709759 131.493 1.11344 131.232 1.63688 C 130.971 2.16033 130.84 2.78137 130.84 3.5 C 130.84 4.21863 130.971 4.83967 131.232 5.36312 C 131.493 5.88656 131.852 6.29024 132.307 6.57414 C 132.763 6.85805 133.283 7 133.868 7 C 134.453 7 134.973 6.85805 135.429 6.57414 C 135.884 6.29024 136.242 5.88656 136.504 5.36312 Z M 135.794 2.00618 C 135.992 2.41207 136.092 2.91001 136.092 3.5 C 136.092 4.08999 135.992 4.58793 135.794 4.99382 C 135.597 5.39971 135.33 5.70691 134.993 5.9154 C 134.658 6.12389 134.283 6.22814 133.868 6.22814 C 133.453 6.22814 133.076 6.12389 132.739 5.9154 C 132.404 5.70691 132.138 5.39971 131.939 4.99382 C 131.742 4.58793 131.644 4.08999 131.644 3.5 C 131.644 2.91001 131.742 2.41207 131.939 2.00618 C 132.138 1.60029 132.404 1.29309 132.739 1.0846 C 133.076 0.876109 133.453 0.771863 133.868 0.771863 C 134.283 0.771863 134.658 0.876109 134.993 1.0846 C 135.33 1.29309 135.597 1.60029 135.794 2.00618 Z" stroke-linecap="round" />
</g>
<g transform="matrix(1 0 0 1 522.45 501.43)"  >
<path style="stroke: none; stroke-width: 1; stroke-dasharray: none; stroke-linecap: butt; stroke-dashoffset: 0; stroke-linejoin: miter; stroke-miterlimit: 4; fill: rgb(255,255,255); fill-rule: nonzero; opacity: 1;" vector-effect="non-scaling-stroke"  transform=" translate(-99.53, -3.5)" d="M 96.9629 0.0931559 L 96.9629 0.825095 L 99.1197 0.825095 L 99.1197 6.90684 L 99.9503 6.90684 L 99.9503 0.825095 L 102.107 0.825095 L 102.107 0.0931559 L 96.9629 0.0931559 Z" stroke-linecap="round" />
</g>
<g transform="matrix(1 0 0 1 532.07 501.43)"  >
<path style="stroke: none; stroke-width: 1; stroke-dasharray: none; stroke-linecap: butt; stroke-dashoffset: 0; stroke-linejoin: miter; stroke-miterlimit: 4; fill: rgb(255,255,255); fill-rule: nonzero; opacity: 1;" vector-effect="non-scaling-stroke"  transform=" translate(-109.16, -3.5)" d="M 106.501 6.90684 L 106.501 0.0931559 L 107.332 0.0931559 L 107.332 3.12738 L 110.989 3.12738 L 110.989 0.0931559 L 111.82 0.0931559 L 111.82 6.90684 L 110.989 6.90684 L 110.989 3.85931 L 107.332 3.85931 L 107.332 6.90684 L 106.501 6.90684 Z" stroke-linecap="round" />
</g>
<g transform="matrix(1 0 0 1 541.61 501.43)"  >
<path style="stroke: none; stroke-width: 1; stroke-dasharray: none; stroke-linecap: butt; stroke-dashoffset: 0; stroke-linejoin: miter; stroke-miterlimit: 4; fill: rgb(255,255,255); fill-rule: nonzero; opacity: 1;" vector-effect="non-scaling-stroke"  transform=" translate(-118.69, -3.5)" d="M 116.595 6.90684 L 116.595 0.0931559 L 120.734 0.0931559 L 120.734 0.825095 L 117.425 0.825095 L 117.425 3.12738 L 120.52 3.12738 L 120.52 3.85931 L 117.425 3.85931 L 117.425 6.1749 L 120.788 6.1749 L 120.788 6.90684 L 116.595 6.90684 Z" stroke-linecap="round" />
</g>
<g transform="matrix(1 0 0 1 566.78 501.43)"  >
<path style="stroke: none; stroke-width: 1; stroke-dasharray: none; stroke-linecap: butt; stroke-dashoffset: 0; stroke-linejoin: miter; stroke-miterlimit: 4; fill: rgb(255,255,255); fill-rule: evenodd; opacity: 1;" vector-effect="non-scaling-stroke"  transform=" translate(-143.86, -3.5)" d="M 143.722 0.0931559 L 141.404 0.0931559 L 141.404 6.90684 L 142.235 6.90684 L 142.235 4.24525 L 143.735 4.24525 C 143.795 4.24525 143.853 4.24415 143.91 4.24196 L 145.356 6.90684 L 146.321 6.90684 L 144.771 4.09721 C 144.868 4.0644 144.96 4.02613 145.045 3.98241 C 145.386 3.80497 145.64 3.56099 145.805 3.25047 C 145.97 2.93996 146.053 2.58397 146.053 2.18251 C 146.053 1.78105 145.97 1.42285 145.805 1.10789 C 145.64 0.792934 145.385 0.545627 145.041 0.36597 C 144.698 0.184094 144.258 0.0931559 143.722 0.0931559 Z M 142.235 3.5 L 143.709 3.5 C 144.075 3.5 144.369 3.44677 144.593 3.3403 C 144.818 3.23384 144.981 3.08302 145.082 2.88783 C 145.184 2.69043 145.236 2.45532 145.236 2.18251 C 145.236 1.9097 145.184 1.67126 145.082 1.46721 C 144.979 1.26315 144.815 1.10567 144.589 0.994772 C 144.364 0.881654 144.066 0.825095 143.695 0.825095 L 142.235 0.825095 L 142.235 3.5 Z" stroke-linecap="round" />
</g>
<g transform="matrix(1 0 0 1 576.12 501.43)"  >
<path style="stroke: none; stroke-width: 1; stroke-dasharray: none; stroke-linecap: butt; stroke-dashoffset: 0; stroke-linejoin: miter; stroke-miterlimit: 4; fill: rgb(255,255,255); fill-rule: nonzero; opacity: 1;" vector-effect="non-scaling-stroke"  transform=" translate(-153.21, -3.5)" d="M 154.947 1.62025 C 155.067 1.79769 155.164 1.99842 155.238 2.22243 L 156.095 2.22243 C 156.033 1.89195 155.919 1.59141 155.754 1.32082 C 155.588 1.048 155.382 0.814005 155.134 0.618821 C 154.888 0.421419 154.608 0.269487 154.293 0.163023 C 153.981 0.0543412 153.644 0 153.282 0 C 152.842 0 152.439 0.0809574 152.073 0.242871 C 151.707 0.404785 151.39 0.637674 151.122 0.94154 C 150.854 1.24541 150.646 1.61359 150.499 2.0461 C 150.354 2.47639 150.281 2.96103 150.281 3.5 C 150.281 4.21863 150.409 4.83967 150.663 5.36312 C 150.92 5.88656 151.277 6.29024 151.735 6.57414 C 152.195 6.85805 152.728 7 153.336 7 C 153.88 7 154.363 6.88688 154.782 6.66065 C 155.204 6.43219 155.535 6.11058 155.774 5.69582 C 156.015 5.28105 156.135 4.79309 156.135 4.23194 L 156.135 3.5 L 153.523 3.5 L 153.523 4.23194 L 155.331 4.23194 C 155.324 4.62663 155.24 4.97153 155.077 5.26663 C 154.91 5.57272 154.675 5.81004 154.374 5.97861 C 154.075 6.14496 153.729 6.22814 153.336 6.22814 C 152.911 6.22814 152.53 6.12389 152.19 5.9154 C 151.851 5.70691 151.582 5.39971 151.383 4.99382 C 151.184 4.58793 151.085 4.08999 151.085 3.5 C 151.085 2.91001 151.183 2.41207 151.38 2.00618 C 151.576 1.60029 151.841 1.29309 152.173 1.0846 C 152.506 0.876109 152.876 0.771863 153.282 0.771863 C 153.53 0.771863 153.758 0.805133 153.965 0.871673 C 154.173 0.938213 154.358 1.0347 154.521 1.16112 C 154.686 1.28755 154.828 1.44059 154.947 1.62025 Z" stroke-linecap="round" />
</g>
<g transform="matrix(1 0 0 1 585.73 501.43)"  >
<path style="stroke: none; stroke-width: 1; stroke-dasharray: none; stroke-linecap: butt; stroke-dashoffset: 0; stroke-linejoin: miter; stroke-miterlimit: 4; fill: rgb(255,255,255); fill-rule: evenodd; opacity: 1;" vector-effect="non-scaling-stroke"  transform=" translate(-162.82, -3.5)" d="M 159.869 6.90684 L 160.74 6.90684 L 161.429 4.97719 L 164.203 4.97719 L 164.893 6.90684 L 165.763 6.90684 L 163.245 0.0931559 L 162.388 0.0931559 L 159.869 6.90684 Z M 163.942 4.24525 L 162.843 1.1711 L 162.789 1.1711 L 161.691 4.24525 L 163.942 4.24525 Z" stroke-linecap="round" />
</g>
<g transform="matrix(1 0 0 1 595.58 501.43)"  >
<path style="stroke: none; stroke-width: 1; stroke-dasharray: none; stroke-linecap: butt; stroke-dashoffset: 0; stroke-linejoin: miter; stroke-miterlimit: 4; fill: rgb(255,255,255); fill-rule: nonzero; opacity: 1;" vector-effect="non-scaling-stroke"  transform=" translate(-172.66, -3.5)" d="M 174.579 6.90684 L 175.383 6.90684 L 175.383 0.0931559 L 174.566 0.0931559 L 174.566 5.45627 L 174.499 5.45627 L 170.748 0.0931559 L 169.944 0.0931559 L 169.944 6.90684 L 170.775 6.90684 L 170.775 1.55703 L 170.842 1.55703 L 174.579 6.90684 Z" stroke-linecap="round" />
</g>
<g transform="matrix(1 0 0 1 603.49 501.43)"  >
<path style="stroke: none; stroke-width: 1; stroke-dasharray: none; stroke-linecap: butt; stroke-dashoffset: 0; stroke-linejoin: miter; stroke-miterlimit: 4; fill: rgb(255,255,255); fill-rule: nonzero; opacity: 1;" vector-effect="non-scaling-stroke"  transform=" translate(-180.57, -3.5)" d="M 180.157 6.90684 L 180.988 6.90684 L 180.988 0.0931559 L 180.157 0.0931559 L 180.157 6.90684 Z" stroke-linecap="round" />
</g>
<g transform="matrix(1 0 0 1 610.8 501.43)"  >
<path style="stroke: none; stroke-width: 1; stroke-dasharray: none; stroke-linecap: butt; stroke-dashoffset: 0; stroke-linejoin: miter; stroke-miterlimit: 4; fill: rgb(255,255,255); fill-rule: nonzero; opacity: 1;" vector-effect="non-scaling-stroke"  transform=" translate(-187.88, -3.5)" d="M 185.538 6.30798 L 185.538 6.90684 L 190.267 6.90684 L 190.267 6.1749 L 186.529 6.1749 L 190.226 0.692015 L 190.226 0.0931559 L 185.497 0.0931559 L 185.497 0.825095 L 189.235 0.825095 L 185.538 6.30798 Z" stroke-linecap="round" />
</g>
<g transform="matrix(1 0 0 1 620.04 501.43)"  >
<path style="stroke: none; stroke-width: 1; stroke-dasharray: none; stroke-linecap: butt; stroke-dashoffset: 0; stroke-linejoin: miter; stroke-miterlimit: 4; fill: rgb(255,255,255); fill-rule: evenodd; opacity: 1;" vector-effect="non-scaling-stroke"  transform=" translate(-197.13, -3.5)" d="M 194.183 6.90684 L 195.053 6.90684 L 195.743 4.97719 L 198.517 4.97719 L 199.206 6.90684 L 200.077 6.90684 L 197.559 0.0931559 L 196.701 0.0931559 L 194.183 6.90684 Z M 198.255 4.24525 L 197.157 1.1711 L 197.103 1.1711 L 196.005 4.24525 L 198.255 4.24525 Z" stroke-linecap="round" />
</g>
<g transform="matrix(1 0 0 1 628.57 501.43)"  >
<path style="stroke: none; stroke-width: 1; stroke-dasharray: none; stroke-linecap: butt; stroke-dashoffset: 0; stroke-linejoin: miter; stroke-miterlimit: 4; fill: rgb(255,255,255); fill-rule: nonzero; opacity: 1;" vector-effect="non-scaling-stroke"  transform=" translate(-205.65, -3.5)" d="M 203.081 0.0931559 L 203.081 0.825095 L 205.238 0.825095 L 205.238 6.90684 L 206.069 6.90684 L 206.069 0.825095 L 208.226 0.825095 L 208.226 0.0931559 L 203.081 0.0931559 Z" stroke-linecap="round" />
</g>
<g transform="matrix(1 0 0 1 635.95 501.43)"  >
<path style="stroke: none; stroke-width: 1; stroke-dasharray: none; stroke-linecap: butt; stroke-dashoffset: 0; stroke-linejoin: miter; stroke-miterlimit: 4; fill: rgb(255,255,255); fill-rule: nonzero; opacity: 1;" vector-effect="non-scaling-stroke"  transform=" translate(-213.03, -3.5)" d="M 212.62 6.90684 L 213.45 6.90684 L 213.45 0.0931559 L 212.62 0.0931559 L 212.62 6.90684 Z" stroke-linecap="round" />
</g>
<g transform="matrix(1 0 0 1 643.9 501.43)"  >
<path style="stroke: none; stroke-width: 1; stroke-dasharray: none; stroke-linecap: butt; stroke-dashoffset: 0; stroke-linejoin: miter; stroke-miterlimit: 4; fill: rgb(255,255,255); fill-rule: evenodd; opacity: 1;" vector-effect="non-scaling-stroke"  transform=" translate(-220.99, -3.5)" d="M 223.623 5.36312 C 223.884 4.83967 224.015 4.21863 224.015 3.5 C 224.015 2.78137 223.884 2.16033 223.623 1.63688 C 223.362 1.11344 223.004 0.709759 222.548 0.425856 C 222.093 0.141952 221.572 0 220.987 0 C 220.403 0 219.882 0.141952 219.427 0.425856 C 218.971 0.709759 218.613 1.11344 218.352 1.63688 C 218.091 2.16033 217.96 2.78137 217.96 3.5 C 217.96 4.21863 218.091 4.83967 218.352 5.36312 C 218.613 5.88656 218.971 6.29024 219.427 6.57414 C 219.882 6.85805 220.403 7 220.987 7 C 221.572 7 222.093 6.85805 222.548 6.57414 C 223.004 6.29024 223.362 5.88656 223.623 5.36312 Z M 222.913 2.00618 C 223.112 2.41207 223.211 2.91001 223.211 3.5 C 223.211 4.08999 223.112 4.58793 222.913 4.99382 C 222.717 5.39971 222.45 5.70691 222.113 5.9154 C 221.778 6.12389 221.403 6.22814 220.987 6.22814 C 220.572 6.22814 220.196 6.12389 219.859 5.9154 C 219.524 5.70691 219.257 5.39971 219.058 4.99382 C 218.862 4.58793 218.764 4.08999 218.764 3.5 C 218.764 2.91001 218.862 2.41207 219.058 2.00618 C 219.257 1.60029 219.524 1.29309 219.859 1.0846 C 220.196 0.876109 220.572 0.771863 220.987 0.771863 C 221.403 0.771863 221.778 0.876109 222.113 1.0846 C 222.45 1.29309 222.717 1.60029 222.913 2.00618 Z" stroke-linecap="round" />
</g>
<g transform="matrix(1 0 0 1 654.16 501.43)"  >
<path style="stroke: none; stroke-width: 1; stroke-dasharray: none; stroke-linecap: butt; stroke-dashoffset: 0; stroke-linejoin: miter; stroke-miterlimit: 4; fill: rgb(255,255,255); fill-rule: nonzero; opacity: 1;" vector-effect="non-scaling-stroke"  transform=" translate(-231.24, -3.5)" d="M 233.159 6.90684 L 233.963 6.90684 L 233.963 0.0931559 L 233.146 0.0931559 L 233.146 5.45627 L 233.079 5.45627 L 229.328 0.0931559 L 228.524 0.0931559 L 228.524 6.90684 L 229.355 6.90684 L 229.355 1.55703 L 229.421 1.55703 L 233.159 6.90684 Z" stroke-linecap="round" />
</g>
<g transform="matrix(1 0 0 1 464.96 520.94)"  >
<path style="stroke: none; stroke-width: 1; stroke-dasharray: none; stroke-linecap: butt; stroke-dashoffset: 0; stroke-linejoin: miter; stroke-miterlimit: 4; fill: rgb(254,57,60); fill-rule: evenodd; opacity: 1;" vector-effect="non-scaling-stroke"  transform=" translate(-42.05, -23.02)" d="M 37.8419 11.6379 L 52.7866 28.1871 C 54.4578 30.0377 54.3508 32.9284 52.5477 34.6436 C 50.7446 36.3588 47.9281 36.249 46.2569 34.3984 L 31.3123 17.8492 C 29.6411 15.9986 29.748 13.1079 31.5511 11.3927 C 33.3543 9.6775 36.1707 9.78728 37.8419 11.6379 Z" stroke-linecap="round" />
</g>
<g transform="matrix(1 0 0 1 458.55 532.13)"  >
<path style="stroke: none; stroke-width: 1; stroke-dasharray: none; stroke-linecap: butt; stroke-dashoffset: 0; stroke-linejoin: miter; stroke-miterlimit: 4; fill: rgb(184,48,50); fill-rule: evenodd; opacity: 1;" vector-effect="non-scaling-stroke"  transform=" translate(-35.63, -34.2)" d="M 29.3229 37.8019 L 19.6878 46.9869 C 17.8869 48.7036 15.071 48.597 13.3983 46.7486 C 11.7256 44.9003 11.8296 42.0102 13.6304 40.2935 L 17.1226 36.9645 L 17.1546 36.9339 L 31.0778 23.6612 C 36.1866 18.7912 44.1747 19.0937 48.9198 24.3371 L 57.869 34.2259 C 59.5417 36.0743 59.4378 38.9644 57.6369 40.6811 C 55.836 42.3979 53.0201 42.2912 51.3474 40.4429 L 42.3981 30.554 C 40.9984 29.0073 38.6421 28.9181 37.1352 30.3546 L 29.3552 37.7711 L 29.3229 37.8019 Z" stroke-linecap="round" />
</g>
<g transform="matrix(1 0 0 1 460.49 559.09)"  >
<path style="stroke: none; stroke-width: 1; stroke-dasharray: none; stroke-linecap: butt; stroke-dashoffset: 0; stroke-linejoin: miter; stroke-miterlimit: 4; fill: rgb(0,184,77); fill-rule: nonzero; opacity: 1;" vector-effect="non-scaling-stroke"  transform=" translate(-37.58, -61.17)" d="M 42.1309 71.7111 L 49.9263 64.28 L 49.9369 64.2699 L 59.5783 55.0789 C 61.3792 53.3622 61.4831 50.4721 59.8104 48.6238 C 58.1377 46.7755 55.3218 46.6688 53.5209 48.3856 L 36.0736 65.0178 C 34.5666 66.4543 32.2103 66.3651 30.8106 64.8184 L 21.8614 54.9295 C 20.1887 53.0812 17.3728 52.9745 15.5719 54.6912 C 13.771 56.408 13.667 59.2981 15.3397 61.1464 L 24.289 71.0353 C 29.0341 76.2786 37.0222 76.5812 42.1309 71.7111 Z" stroke-linecap="round" />
</g>
<g transform="matrix(1 0 0 1 460.34 533.69)"  >
<path style="stroke: none; stroke-width: 1; stroke-dasharray: none; stroke-linecap: butt; stroke-dashoffset: 0; stroke-linejoin: miter; stroke-miterlimit: 4; fill: rgb(255,191,35); fill-rule: evenodd; opacity: 1;" vector-effect="non-scaling-stroke"  transform=" translate(-37.42, -35.77)" d="M 31.1142 39.3649 L 21.4791 48.5499 C 19.6782 50.2666 16.8623 50.16 15.1896 48.3116 C 13.5169 46.4633 13.6208 43.5732 15.4217 41.8565 L 18.9138 38.5275 L 18.9459 38.4969 L 32.8691 25.2242 C 37.9778 20.3542 45.9659 20.6567 50.711 25.9 L 59.6602 35.7889 C 61.333 37.6373 61.229 40.5274 59.4281 42.2441 C 57.6272 43.9609 54.8113 43.8542 53.1386 42.0059 L 44.1894 32.117 C 42.7897 30.5703 40.4334 30.481 38.9264 31.9176 L 31.1464 39.3341 L 31.1142 39.3649 Z" stroke-linecap="round" />
</g>
</svg>