<svg width="235" height="85" viewBox="0 0 235 85" fill="none" xmlns="http://www.w3.org/2000/svg">
<g clip-path="url(#clip0_518_1380)">
<path d="M0 28.4822C0 12.8954 12.4849 0.259766 27.8859 0.259766H47.0143C62.4152 0.259766 74.9002 12.8954 74.9002 28.4822V55.9271C74.9002 71.5139 62.4152 84.1495 47.0143 84.1495H27.8859C12.4849 84.1495 0 71.5139 0 55.9271V28.4822Z" fill="#004C92"/>
<path fill-rule="evenodd" clip-rule="evenodd" d="M131.484 27.5086C131.472 26.3183 131.236 25.1908 130.773 24.1331C130.316 23.0775 129.692 22.152 128.901 21.3627C128.119 20.5724 127.204 19.9519 126.16 19.5008C125.104 19.0446 123.985 18.8179 122.808 18.8179C121.62 18.8179 120.49 19.0505 119.423 19.518C118.38 19.969 117.46 20.5889 116.669 21.3773L116.666 21.381C115.885 22.1707 115.267 23.0961 114.81 24.1509L114.808 24.1571C114.356 25.2271 114.133 26.371 114.133 27.5816C114.133 28.7821 114.357 29.9204 114.808 30.9896L114.81 30.9957C115.267 32.0506 115.885 32.9759 116.666 33.7656L116.669 33.7694C117.459 34.5568 118.377 35.1814 119.419 35.6432L119.427 35.647C120.493 36.1024 121.622 36.3288 122.808 36.3288C123.474 36.3288 124.115 36.2765 124.732 36.1706C125.357 36.0651 125.921 35.9096 126.416 35.697C126.92 35.4853 127.357 35.2149 127.698 34.8695L127.703 34.8644L127.708 34.8592C128.082 34.465 128.293 33.9805 128.293 33.4305C128.293 33.1385 128.237 32.8549 128.127 32.5847C128.02 32.3233 127.871 32.0873 127.675 31.8863C127.509 31.7065 127.317 31.5598 127.101 31.4493C127.074 31.4356 127.047 31.4224 127.02 31.4098C126.757 31.273 126.472 31.2078 126.178 31.2078C125.755 31.2078 125.348 31.345 124.969 31.5645L124.961 31.569C124.639 31.7606 124.326 31.8998 124.021 31.9916C123.731 32.0679 123.333 32.114 122.808 32.114C122.303 32.114 121.826 32.0291 121.375 31.8616C120.925 31.6907 120.521 31.455 120.158 31.154C119.795 30.8522 119.488 30.4992 119.235 30.0926C119.195 30.0264 119.19 29.9793 119.192 29.9484C119.194 29.9135 119.207 29.8681 119.243 29.8169C119.32 29.7094 119.482 29.6066 119.696 29.6066H128.026H129.385C129.959 29.6066 130.481 29.4167 130.889 29.0041C131.289 28.5992 131.484 28.086 131.484 27.5157V27.5086ZM125.677 24.0342C125.309 23.7178 124.883 23.4679 124.392 23.2863L124.388 23.2848C123.917 23.1074 123.409 23.0162 122.857 23.0162C122.297 23.0162 121.788 23.1119 121.322 23.2969L121.31 23.3013C120.834 23.4809 120.414 23.7338 120.045 24.0605L120.038 24.0672C119.666 24.3864 119.361 24.761 119.119 25.1944C119.076 25.2708 119.07 25.3275 119.074 25.3679C119.078 25.412 119.095 25.4656 119.138 25.5233C119.228 25.6441 119.41 25.7543 119.643 25.7543H126.092C126.339 25.7543 126.533 25.6371 126.626 25.5106C126.67 25.4505 126.687 25.3964 126.69 25.354C126.693 25.3156 126.681 25.2494 126.634 25.1715C126.383 24.7378 126.066 24.3606 125.684 24.0397L125.677 24.0342Z" fill="white"/>
<path fill-rule="evenodd" clip-rule="evenodd" d="M139.132 35.7245C138.101 35.262 137.193 34.6365 136.414 33.8481L136.411 33.8443C135.641 33.0535 135.034 32.1273 134.589 31.0721C134.138 30.0029 133.914 28.8646 133.914 27.664C133.914 26.4635 134.138 25.3252 134.589 24.256C135.034 23.2008 135.641 22.2745 136.411 21.4838C137.191 20.6825 138.101 20.0549 139.135 19.6022C140.183 19.1328 141.305 18.9004 142.492 18.9004C143.678 18.9004 144.793 19.1265 145.831 19.5849C146.864 20.0367 147.769 20.6579 148.539 21.4487C149.309 22.2281 149.916 23.1432 150.362 24.1875C150.811 25.2418 151.046 26.3651 151.07 27.5511V27.5652V34.1226C151.07 34.7201 150.861 35.2536 150.451 35.6839L150.442 35.6935C150.024 36.1165 149.497 36.3289 148.906 36.3289C148.315 36.3289 147.787 36.1152 147.384 35.673L147.375 35.6633C147.224 35.492 147.104 35.3059 147.014 35.1078C146.52 35.4192 145.995 35.6797 145.438 35.8891C144.509 36.2386 143.526 36.4112 142.492 36.4112C141.306 36.4112 140.186 36.1849 139.138 35.7272L139.132 35.7245ZM145.558 30.7948C145.95 30.3879 146.254 29.9208 146.469 29.3891L146.472 29.3833C146.695 28.8471 146.808 28.2761 146.808 27.664C146.808 27.0519 146.695 26.4881 146.474 25.9654L146.471 25.9585L146.468 25.9515C146.252 25.4104 145.951 24.9475 145.564 24.5557L145.558 24.5497C145.179 24.1573 144.73 23.8467 144.203 23.6182L144.194 23.614C143.682 23.3829 143.118 23.2634 142.492 23.2634C141.879 23.2634 141.32 23.3822 140.807 23.6139L140.798 23.6183C140.271 23.8467 139.822 24.1572 139.443 24.5496C139.063 24.9442 138.757 25.4124 138.529 25.9613L138.527 25.9654C138.306 26.4881 138.193 27.0519 138.193 27.664C138.193 28.2754 138.306 28.8456 138.528 29.3812C138.756 29.9187 139.062 30.3894 139.446 30.7979C139.825 31.19 140.275 31.5059 140.802 31.7449C141.316 31.967 141.877 32.0811 142.492 32.0811C143.12 32.0811 143.686 31.9664 144.198 31.7449C144.727 31.5053 145.178 31.1882 145.558 30.7948Z" fill="white"/>
<path d="M160.637 24.7533C161.074 24.3113 161.576 23.9662 162.146 23.7158L162.155 23.7118C162.713 23.4577 163.31 23.3292 163.953 23.3292H164.034C164.616 23.3292 165.14 23.129 165.567 22.7291C166.008 22.3159 166.23 21.7794 166.23 21.1724C166.23 20.5942 166.044 20.0688 165.65 19.6502C165.229 19.1912 164.649 19.0156 164.034 19.0156H163.953C162.72 19.0156 161.55 19.2597 160.449 19.7505C159.372 20.2247 158.425 20.879 157.612 21.7123C156.8 22.5356 156.159 23.5003 155.692 24.6002C155.219 25.7132 154.984 26.896 154.984 28.1417V34.1719C154.984 34.4695 155.039 34.7592 155.157 35.0319L155.164 35.0485L155.172 35.0647C155.29 35.3047 155.442 35.5214 155.628 35.7098L155.638 35.7198L155.648 35.7294C155.846 35.9138 156.068 36.0618 156.314 36.1706L156.338 36.181L156.362 36.1896C156.621 36.2821 156.889 36.3288 157.164 36.3288C157.734 36.3288 158.243 36.1206 158.64 35.7048C159.049 35.2878 159.246 34.7589 159.246 34.1719V28.1417C159.246 27.4768 159.369 26.859 159.612 26.2814C159.871 25.6891 160.214 25.1819 160.637 24.7533Z" fill="white"/>
<path d="M169.272 24.1946C169.695 23.1725 170.274 22.2735 171.01 21.5043C171.748 20.7338 172.616 20.1273 173.607 19.6852C174.613 19.237 175.691 19.0156 176.835 19.0156C177.989 19.0156 179.073 19.2364 180.079 19.6847C181.08 20.126 181.953 20.7318 182.691 21.5025C183.44 22.2723 184.02 23.173 184.433 24.198C184.86 25.2316 185.071 26.3287 185.071 27.4827V34.1884C185.071 34.7778 184.873 35.3085 184.46 35.7263L184.455 35.7314L184.45 35.7364C184.039 36.1355 183.525 36.3288 182.957 36.3288C182.388 36.3288 181.875 36.1359 181.457 35.7459L181.452 35.741L181.447 35.736C181.02 35.3203 180.809 34.7866 180.809 34.1884V27.5218C180.799 26.9373 180.69 26.4016 180.488 25.9084L180.486 25.9041C180.28 25.3917 179.998 24.9534 179.64 24.5822L179.634 24.5756C179.287 24.206 178.875 23.9133 178.393 23.6972L178.382 23.6926C177.916 23.4746 177.403 23.3622 176.835 23.3622C176.264 23.3622 175.747 23.4708 175.278 23.6807L175.273 23.6833C174.805 23.8874 174.4 24.173 174.053 24.5426C173.705 24.9138 173.426 25.3532 173.218 25.8682C173.026 26.3609 172.927 26.8969 172.927 27.4827V34.1884C172.927 34.7778 172.728 35.3085 172.315 35.7263C171.911 36.1351 171.397 36.3288 170.828 36.3288C170.554 36.3288 170.285 36.2821 170.026 36.1896L170.002 36.181L169.979 36.1706C169.745 36.067 169.529 35.9322 169.335 35.7661L169.313 35.7471L169.293 35.7263C169.106 35.5379 168.955 35.3212 168.836 35.0812L168.828 35.065L168.821 35.0484C168.703 34.7757 168.648 34.486 168.648 34.1884V27.4827C168.648 26.3301 168.854 25.2341 169.27 24.2011L169.272 24.1946Z" fill="white"/>
<path d="M191.398 13.6611C191.079 13.6611 190.77 13.7232 190.476 13.8483L190.463 13.8539C190.189 13.9771 189.944 14.1476 189.732 14.3625C189.526 14.5709 189.365 14.8147 189.246 15.086C189.117 15.38 189.055 15.6927 189.055 16.0156C189.055 16.3386 189.117 16.6513 189.246 16.9453C189.363 17.2121 189.519 17.4538 189.714 17.6665L189.732 17.6857L189.751 17.7035C189.961 17.901 190.2 18.059 190.463 18.1776L190.476 18.183C190.77 18.3081 191.079 18.3702 191.398 18.3702C191.717 18.3702 192.026 18.3081 192.317 18.1774C192.58 18.0589 192.819 17.901 193.029 17.7035L193.039 17.6946L193.048 17.6853C193.26 17.4705 193.429 17.2227 193.551 16.9453C193.68 16.6513 193.741 16.3386 193.741 16.0156C193.741 15.6927 193.68 15.38 193.551 15.086C193.428 14.8077 193.258 14.5612 193.039 14.3532C192.829 14.1428 192.587 13.9754 192.317 13.8539C192.026 13.7232 191.717 13.6611 191.398 13.6611Z" fill="white"/>
<path d="M189.871 19.5258L189.882 19.5162C190.079 19.3318 190.302 19.1838 190.547 19.075L190.554 19.0719L190.561 19.069C190.833 18.9557 191.119 18.9004 191.414 18.9004C191.998 18.9004 192.516 19.1166 192.915 19.5509C193.312 19.971 193.512 20.4922 193.512 21.0737V34.172C193.512 34.7646 193.298 35.2908 192.884 35.7099C192.479 36.1198 191.969 36.3289 191.397 36.3289C190.821 36.3289 190.304 36.1251 189.881 35.7287L189.871 35.7195L189.861 35.7099C189.447 35.2908 189.234 34.7646 189.234 34.172V21.0737C189.234 20.7841 189.289 20.5031 189.403 20.2374C189.511 19.9744 189.662 19.7372 189.861 19.5358L189.871 19.5258Z" fill="white"/>
<path d="M197.904 24.1946L197.902 24.2011C197.486 25.2341 197.281 26.3301 197.281 27.4827V34.1884C197.281 34.486 197.335 34.7757 197.453 35.0484L197.46 35.065L197.468 35.0812C197.587 35.3212 197.738 35.5379 197.925 35.7263L197.945 35.7471L197.967 35.7661C198.161 35.9322 198.377 36.067 198.611 36.1706L198.634 36.181L198.658 36.1896C198.917 36.2821 199.186 36.3288 199.46 36.3288C200.029 36.3288 200.543 36.1351 200.947 35.7263C201.36 35.3085 201.559 34.7778 201.559 34.1884V27.4827C201.559 26.8966 201.658 26.3604 201.851 25.8676C202.058 25.3529 202.337 24.9136 202.686 24.5426C203.033 24.173 203.437 23.8874 203.905 23.6833L203.911 23.6807C204.38 23.4708 204.896 23.3622 205.468 23.3622C206.035 23.3622 206.548 23.4746 207.014 23.6926L207.025 23.6972C207.507 23.9133 207.919 24.206 208.266 24.5756L208.272 24.5822C208.63 24.9534 208.912 25.3917 209.118 25.9041L209.12 25.9084C209.323 26.4016 209.431 26.9373 209.441 27.5218V34.1884C209.441 34.7866 209.652 35.3203 210.079 35.736L210.084 35.741L210.089 35.7459C210.507 36.1359 211.02 36.3288 211.589 36.3288C212.157 36.3288 212.671 36.1355 213.082 35.7364L213.087 35.7314L213.092 35.7263C213.505 35.3085 213.703 34.7778 213.703 34.1884V27.4827C213.703 26.3287 213.492 25.2316 213.065 24.198C212.652 23.173 212.072 22.2723 211.323 21.5025C210.585 20.7318 209.712 20.126 208.711 19.6847C207.705 19.2364 206.621 19.0156 205.468 19.0156C204.323 19.0156 203.245 19.237 202.239 19.6852C201.248 20.1273 200.38 20.7338 199.642 21.5043C198.906 22.2735 198.327 23.1725 197.904 24.1946Z" fill="white"/>
<path fill-rule="evenodd" clip-rule="evenodd" d="M217.558 24.2409L217.56 24.2348C218.017 23.18 218.635 22.2546 219.416 21.4649C220.205 20.6655 221.12 20.0388 222.154 19.5865C223.212 19.1179 224.338 18.8853 225.526 18.8853C226.723 18.8853 227.855 19.1173 228.913 19.5859C229.958 20.0379 230.874 20.665 231.654 21.4668C232.435 22.2575 233.048 23.1843 233.494 24.2409C233.945 25.3101 234.169 26.4484 234.169 27.6489C234.169 28.5729 234.04 29.4487 233.777 30.272C233.725 30.4335 233.669 30.5932 233.609 30.751C233.296 31.5725 233.368 32.5962 233.689 33.541C233.949 34.2594 234.071 35.0675 234.071 35.9528C234.071 36.9858 233.901 37.9257 233.541 38.7564C233.191 39.5736 232.713 40.2724 232.103 40.8396C231.503 41.3972 230.816 41.8192 230.047 42.1034C229.285 42.3848 228.493 42.5252 227.675 42.5252C227.228 42.5252 226.768 42.4897 226.295 42.42C225.891 42.3692 225.494 42.344 225.103 42.344C224.816 42.344 224.488 42.38 224.118 42.4582C223.831 42.5305 223.536 42.6706 223.232 42.8944C223.049 43.0578 222.842 43.1871 222.611 43.272C222.391 43.3562 222.163 43.3984 221.928 43.3984C221.64 43.3984 221.359 43.3411 221.092 43.2298L221.085 43.2269L221.078 43.2238C220.825 43.1116 220.599 42.9535 220.402 42.7563C220.198 42.5629 220.036 42.334 219.916 42.0774C219.783 41.805 219.716 41.5126 219.716 41.2086C219.716 40.7981 219.837 40.4156 220.061 40.0751L220.065 40.0684L220.07 40.0618C220.275 39.7647 220.538 39.5101 220.846 39.2938C221.145 39.0831 221.48 38.9051 221.848 38.7564L221.855 38.7535C222.218 38.6112 222.588 38.4925 222.963 38.3974C223.349 38.2999 223.733 38.2379 224.113 38.213L224.125 38.2123L224.136 38.2119C224.48 38.2007 224.818 38.1951 225.152 38.1951H225.916L225.931 38.1957C226.169 38.2062 226.42 38.2115 226.682 38.2115C227.901 38.2115 228.687 37.9764 229.156 37.62C229.587 37.2923 229.842 36.7912 229.842 35.9858C229.842 35.7737 229.827 35.6108 229.805 35.49C229.789 35.4079 229.772 35.3379 229.754 35.2786C229.239 35.5767 228.698 35.8174 228.131 36.0003C227.309 36.2657 226.439 36.3961 225.526 36.3961C224.34 36.3961 223.215 36.1698 222.159 35.7133L222.15 35.7095C221.12 35.2474 220.208 34.6229 219.419 33.8368L219.416 33.833C218.635 33.0433 218.017 32.1179 217.56 31.0631L217.558 31.057C217.107 29.9878 216.883 28.8495 216.883 27.6489C216.883 26.4484 217.107 25.3101 217.558 24.2409ZM229.572 25.9503L229.571 25.9462C229.344 25.4008 229.035 24.9346 228.646 24.5406C228.257 24.1466 227.796 23.8345 227.257 23.6048L227.248 23.6008C226.723 23.3678 226.152 23.2483 225.526 23.2483C224.913 23.2483 224.347 23.3671 223.82 23.6007L223.815 23.6031C223.287 23.8322 222.83 24.1445 222.438 24.5406C222.048 24.9361 221.733 25.4048 221.495 25.953C221.274 26.475 221.162 27.0379 221.162 27.6489C221.162 28.2584 221.273 28.827 221.495 29.3611C221.732 29.8974 222.047 30.3679 222.441 30.7768C222.833 31.172 223.29 31.4893 223.818 31.7289C224.344 31.9522 224.911 32.066 225.526 32.066C226.154 32.066 226.727 31.9514 227.252 31.7281C227.792 31.4879 228.253 31.1705 228.643 30.7768C229.036 30.3688 229.345 29.8999 229.572 29.3657C229.794 28.8302 229.907 28.2601 229.907 27.6489C229.907 27.0368 229.794 26.473 229.572 25.9503Z" fill="white"/>
<path fill-rule="evenodd" clip-rule="evenodd" d="M116.695 65.3633C117.474 66.1517 118.382 66.7771 119.413 67.2397L119.419 67.2424C120.466 67.7 121.587 67.9264 122.773 67.9264C123.806 67.9264 124.79 67.7538 125.719 67.4043C126.275 67.1948 126.801 66.9344 127.295 66.6229C127.385 66.8211 127.505 67.0071 127.656 67.1784L127.664 67.1882C128.068 67.6303 128.596 67.844 129.187 67.844C129.778 67.844 130.305 67.6317 130.723 67.2087L130.732 67.199C131.141 66.7687 131.351 66.2352 131.351 65.6377V59.0803V59.0662C131.327 57.8802 131.092 56.7569 130.642 55.7026C130.197 54.6584 129.59 53.7434 128.82 52.964C128.05 52.1732 127.145 51.5519 126.112 51.1001C125.074 50.6417 123.959 50.4155 122.773 50.4155C121.585 50.4155 120.464 50.6479 119.416 51.1173C118.381 51.57 117.471 52.1976 116.691 52.9989C115.922 53.7897 115.315 54.7159 114.87 55.7712C114.419 56.8403 114.195 57.9786 114.195 59.1792C114.195 60.3797 114.419 61.518 114.87 62.5872C115.315 63.6424 115.922 64.5687 116.691 65.3594L116.695 65.3633ZM126.75 60.9042C126.534 61.436 126.231 61.903 125.838 62.3099C125.459 62.7033 125.008 63.0204 124.479 63.26C123.967 63.4816 123.401 63.5963 122.773 63.5963C122.158 63.5963 121.597 63.4821 121.083 63.2601C120.555 63.021 120.106 62.7051 119.727 62.3131C119.342 61.9045 119.037 61.4338 118.809 60.8963C118.586 60.3607 118.474 59.7905 118.474 59.1792C118.474 58.567 118.586 58.0032 118.808 57.4805L118.81 57.4764C119.038 56.9275 119.343 56.4593 119.724 56.0648C120.102 55.6724 120.552 55.3619 121.078 55.1334L121.088 55.1291C121.601 54.8973 122.16 54.7786 122.773 54.7786C123.399 54.7786 123.963 54.898 124.474 55.1291L124.484 55.1333C125.011 55.3618 125.46 55.6724 125.838 56.0648L125.844 56.0708C126.231 56.4626 126.533 56.9255 126.749 57.4666L126.751 57.4736L126.754 57.4805C126.976 58.0032 127.088 58.567 127.088 59.1792C127.088 59.7913 126.976 60.3622 126.752 60.8984L126.75 60.9042Z" fill="white"/>
<path fill-rule="evenodd" clip-rule="evenodd" d="M138.935 45.304C139.333 45.7272 139.528 46.2538 139.528 46.8385V52.1277C139.824 51.859 140.143 51.6191 140.484 51.4084L140.491 51.4044C140.998 51.0986 141.541 50.8608 142.118 50.6907L142.121 50.6896C142.714 50.5182 143.316 50.4318 143.925 50.4318C145.112 50.4318 146.238 50.6642 147.295 51.1324C148.34 51.5845 149.256 52.2115 150.037 53.0133C150.818 53.804 151.431 54.7308 151.877 55.7874C152.328 56.8566 152.551 57.9949 152.551 59.1954C152.551 60.396 152.328 61.5343 151.877 62.6035L151.876 62.6061C151.429 63.6524 150.816 64.5733 150.035 65.3631C149.255 66.1528 148.341 66.7784 147.298 67.2406L147.292 67.2433C146.236 67.6998 145.111 67.9262 143.925 67.9262C142.739 67.9262 141.614 67.6998 140.557 67.2433L140.551 67.2407C139.51 66.7789 138.592 66.1543 137.802 65.3668L137.798 65.3631C137.019 64.5747 136.401 63.6559 135.944 62.6123L135.94 62.6035C135.489 61.5344 135.266 60.396 135.266 59.1954V46.8385C135.266 46.5435 135.319 46.2563 135.435 45.9857C135.541 45.7271 135.69 45.4934 135.884 45.2943C136.076 45.0856 136.304 44.9215 136.563 44.8069C136.833 44.6875 137.119 44.6323 137.413 44.6323C138.009 44.6323 138.536 44.8548 138.935 45.304ZM147.955 57.4803L147.953 57.4762C147.726 56.9308 147.418 56.4646 147.029 56.0706C146.639 55.6766 146.179 55.3645 145.64 55.1349C145.111 54.9097 144.542 54.7948 143.925 54.7948C143.308 54.7948 142.738 54.9097 142.21 55.1349C141.671 55.3645 141.21 55.6766 140.821 56.0706C140.43 56.4662 140.115 56.9348 139.877 57.4831C139.657 58.0036 139.544 58.5718 139.544 59.1954C139.544 59.8049 139.656 60.3736 139.877 60.9078C140.115 61.4437 140.429 61.9072 140.821 62.3038C141.211 62.6988 141.674 63.0173 142.215 63.258C142.742 63.4819 143.309 63.5961 143.925 63.5961C144.54 63.5961 145.108 63.4819 145.635 63.258C146.176 63.0173 146.638 62.6988 147.029 62.3038C147.42 61.9082 147.728 61.4464 147.954 60.9126C148.177 60.377 148.289 59.8068 148.289 59.1954C148.289 58.5707 148.176 58.0017 147.955 57.4803Z" fill="white"/>
<path d="M156.878 59.6721C157.351 60.1633 157.903 60.558 158.53 60.8564L158.54 60.8612C159.19 61.1579 159.892 61.3026 160.634 61.3026H163.646C163.829 61.3119 164.008 61.3446 164.183 61.4012C164.351 61.4553 164.49 61.529 164.606 61.6186L164.613 61.6245L164.621 61.6301C164.724 61.7056 164.803 61.7985 164.861 61.9169L164.867 61.9293L164.874 61.9414C164.925 62.0356 164.966 62.1764 164.966 62.3916C164.966 62.6165 164.925 62.7833 164.864 62.91C164.787 63.0565 164.689 63.1789 164.566 63.2819C164.437 63.3914 164.294 63.475 164.137 63.5347C163.968 63.5876 163.805 63.6123 163.646 63.6123H157.134C156.585 63.6123 156.087 63.8024 155.696 64.1983C155.287 64.6127 155.117 65.1551 155.117 65.7362C155.117 66.3194 155.287 66.858 155.676 67.2858C156.062 67.7108 156.566 67.926 157.134 67.926H163.89C164.642 67.926 165.351 67.7822 166.01 67.4876C166.663 67.2007 167.233 66.8096 167.712 66.312L167.718 66.3055C168.191 65.8014 168.558 65.2215 168.818 64.5705C169.092 63.901 169.229 63.1947 169.229 62.4575C169.229 61.7303 169.092 61.0303 168.819 60.3628C168.56 59.7032 168.194 59.1179 167.721 58.6129C167.254 58.1027 166.694 57.7033 166.05 57.4142C165.39 57.1065 164.677 56.9561 163.923 56.9561H160.651C160.517 56.9561 160.394 56.9311 160.277 56.8822C160.155 56.8269 160.043 56.7559 159.94 56.6681C159.862 56.5851 159.798 56.4867 159.748 56.3671C159.701 56.2548 159.672 56.1188 159.672 55.9495C159.672 55.8111 159.698 55.6955 159.743 55.5941L159.748 55.5813C159.801 55.4533 159.871 55.3496 159.956 55.2631L159.965 55.2545L159.973 55.2456C160.064 55.1473 160.161 55.078 160.267 55.0303L160.275 55.0268L160.282 55.0232C160.391 54.9712 160.51 54.9429 160.651 54.9429H166.365C166.649 54.9429 166.923 54.883 167.181 54.7613C167.425 54.6462 167.64 54.4876 167.822 54.2871C168.009 54.0824 168.154 53.8487 168.252 53.5886C168.361 53.3167 168.415 53.0308 168.415 52.7367C168.415 52.1203 168.219 51.5493 167.744 51.1426C167.328 50.7864 166.829 50.6128 166.283 50.6128H160.634C159.916 50.6128 159.232 50.7509 158.589 51.0308C157.954 51.2959 157.395 51.6706 156.917 52.1544C156.452 52.6255 156.083 53.1772 155.811 53.803C155.532 54.4458 155.394 55.1309 155.394 55.8506C155.394 56.5753 155.524 57.2695 155.787 57.9277C156.045 58.576 156.405 59.1547 156.866 59.6588L156.872 59.6656L156.878 59.6721Z" fill="white"/>
<path d="M97.961 29.1637L97.98 23.076V23.0677L98.0034 15.5385C98.0078 14.1321 99.1379 12.9956 100.527 13C101.917 13.0044 103.04 14.1481 103.036 15.5545L102.993 29.1797C102.989 30.3565 103.929 31.3135 105.092 31.3172L110.531 31.3409C111.92 31.3454 113.043 32.489 113.039 33.8954C113.035 35.3018 111.905 36.4383 110.515 36.4339L105.076 36.4102C101.134 36.3976 97.9486 33.1532 97.961 29.1637Z" fill="white"/>
<path d="M97.9799 54.5682L97.961 60.6559C97.9486 64.6454 101.134 67.8898 105.076 67.9024L110.515 67.9261C111.905 67.9305 113.035 66.794 113.039 65.3876C113.043 63.9813 111.92 62.8376 110.531 62.8331L105.092 62.8095C103.929 62.8058 102.989 61.8487 102.993 60.6719L103.036 47.0467C103.04 45.6404 101.917 44.4967 100.527 44.4922C99.1378 44.4878 98.0078 45.6243 98.0034 47.0307L97.98 54.56L97.9799 54.5682Z" fill="white"/>
<path fill-rule="evenodd" clip-rule="evenodd" d="M155.085 81.3631C155.331 80.8397 155.455 80.2186 155.455 79.5C155.455 78.7814 155.331 78.1603 155.085 77.6369C154.838 77.1134 154.499 76.7098 154.069 76.4258C153.639 76.1419 153.147 76 152.595 76C152.042 76 151.551 76.1419 151.12 76.4258C150.69 76.7098 150.351 77.1134 150.105 77.6369C149.858 78.1603 149.734 78.7814 149.734 79.5C149.734 80.2186 149.858 80.8397 150.105 81.3631C150.351 81.8866 150.69 82.2902 151.12 82.5742C151.551 82.8581 152.042 83 152.595 83C153.147 83 153.639 82.8581 154.069 82.5742C154.499 82.2902 154.838 81.8866 155.085 81.3631ZM154.414 78.0062C154.602 78.4121 154.695 78.91 154.695 79.5C154.695 80.09 154.602 80.5879 154.414 80.9938C154.228 81.3997 153.976 81.7069 153.658 81.9154C153.341 82.1239 152.987 82.2281 152.595 82.2281C152.202 82.2281 151.847 82.1239 151.528 81.9154C151.212 81.7069 150.96 81.3997 150.772 80.9938C150.587 80.5879 150.494 80.09 150.494 79.5C150.494 78.91 150.587 78.4121 150.772 78.0062C150.96 77.6003 151.212 77.2931 151.528 77.0846C151.847 76.8761 152.202 76.7719 152.595 76.7719C152.987 76.7719 153.341 76.8761 153.658 77.0846C153.976 77.2931 154.228 77.6003 154.414 78.0062Z" fill="white"/>
<path d="M97.9609 82.907V76.0933H98.7455V82.175H101.758V82.907H97.9609Z" fill="white"/>
<path d="M103.773 82.907V76.0933H107.684V76.8252H104.558V79.1275H107.481V79.8594H104.558V82.175H107.735V82.907H103.773Z" fill="white"/>
<path fill-rule="evenodd" clip-rule="evenodd" d="M109.344 82.907H110.167L110.818 80.9773H113.439L114.09 82.907H114.913L112.533 76.0933H111.724L109.344 82.907ZM113.192 80.2454L112.154 77.1712H112.103L111.065 80.2454H113.192Z" fill="white"/>
<path fill-rule="evenodd" clip-rule="evenodd" d="M116.727 82.907V76.0933H118.916C119.423 76.0933 119.838 76.1842 120.163 76.3661C120.488 76.5457 120.728 76.793 120.884 77.108C121.04 77.4229 121.118 77.7812 121.118 78.1826C121.118 78.5841 121.04 78.9401 120.884 79.2506C120.728 79.5611 120.489 79.8051 120.166 79.9825C120.086 80.0262 119.999 80.0645 119.908 80.0973L121.372 82.907H120.46L119.094 80.2421C119.04 80.2443 118.985 80.2454 118.929 80.2454H117.512V82.907H116.727ZM118.904 79.5001H117.512V76.8252H118.891C119.241 76.8252 119.523 76.8818 119.736 76.9949C119.949 77.1058 120.104 77.2632 120.201 77.4673C120.298 77.6713 120.346 77.9098 120.346 78.1826C120.346 78.4554 120.298 78.6905 120.201 78.8879C120.106 79.0831 119.952 79.2339 119.739 79.3404C119.528 79.4469 119.25 79.5001 118.904 79.5001Z" fill="white"/>
<path d="M128.365 82.907V76.0933H127.593V81.4564H127.53L123.986 76.0933H123.227V82.907H124.011V77.5571H124.075L127.606 82.907H128.365Z" fill="white"/>
<path d="M137.344 76.0933V82.907H141.305V82.175H138.128V79.8594H141.052V79.1275H138.128V76.8252H141.254V76.0933H137.344Z" fill="white"/>
<path d="M143.737 76.0933L145.661 81.829H145.737L147.66 76.0933H148.483L146.104 82.907H145.294L142.914 76.0933H143.737Z" fill="white"/>
<path d="M157.578 82.907V76.0933H158.363V82.175H161.375V82.907H157.578Z" fill="white"/>
<path d="M164.973 81.829L163.049 76.0933H162.227L164.606 82.907H165.416L167.795 76.0933H166.972L165.049 81.829H164.973Z" fill="white"/>
<path d="M169.602 82.907V76.0933H173.513V76.8252H170.387V79.1275H173.31V79.8594H170.387V82.175H173.563V82.907H169.602Z" fill="white"/>
<path fill-rule="evenodd" clip-rule="evenodd" d="M182.336 82.907V76.0933H184.525C185.031 76.0933 185.447 76.1842 185.772 76.3661C186.096 76.5457 186.337 76.793 186.493 77.108C186.649 77.4229 186.727 77.7812 186.727 78.1826C186.727 78.5841 186.649 78.9401 186.493 79.2506C186.337 79.5611 186.098 79.8051 185.775 79.9825C185.694 80.0262 185.608 80.0645 185.516 80.0973L186.98 82.907H186.069L184.703 80.2421C184.649 80.2443 184.594 80.2454 184.538 80.2454H183.12V82.907H182.336ZM184.512 79.5001H183.12V76.8252H184.5C184.85 76.8252 185.131 76.8818 185.345 76.9949C185.558 77.1058 185.713 77.2632 185.81 77.4673C185.907 77.6713 185.955 77.9098 185.955 78.1826C185.955 78.4554 185.907 78.6905 185.81 78.8879C185.715 79.0831 185.561 79.2339 185.348 79.3404C185.137 79.4469 184.858 79.5001 184.512 79.5001Z" fill="white"/>
<path d="M188.836 76.0933V82.907H192.798V82.175H189.621V79.8594H192.545V79.1275H189.621V76.8252H192.747V76.0933H188.836Z" fill="white"/>
<path d="M195.754 76.0933V82.907H194.969V76.0933H195.754Z" fill="white"/>
<path d="M203.263 82.907V76.0933H202.491V81.4564H202.428L198.884 76.0933H198.125V82.907H198.91V77.5571H198.973L202.504 82.907H203.263Z" fill="white"/>
<path d="M205.901 76.0933L207.825 81.829H207.9L209.824 76.0933H210.647L208.267 82.907H207.458L205.078 76.0933H205.901Z" fill="white"/>
<path d="M212.461 76.0933V82.907H216.422V82.175H213.246V79.8594H216.169V79.1275H213.246V76.8252H216.372V76.0933H212.461Z" fill="white"/>
<path d="M223.724 76.0933V82.907H222.964L219.434 77.5571H219.37V82.907H218.586V76.0933H219.345L222.889 81.4564H222.952V76.0933H223.724Z" fill="white"/>
<path d="M225.742 76.0933V76.8252H227.78V82.907H228.565V76.8252H230.602V76.0933H225.742Z" fill="white"/>
<path d="M131.464 82.8715C131.298 82.8715 131.156 82.8112 131.037 82.6906C130.919 82.5699 130.859 82.4253 130.859 82.2568C130.859 82.0883 130.919 81.9436 131.037 81.8229C131.156 81.7021 131.298 81.6417 131.463 81.6416C131.629 81.6416 131.771 81.7018 131.89 81.8225C132.008 81.9432 132.068 82.0878 132.068 82.2563C132.068 82.3679 132.04 82.4704 131.984 82.5638C131.93 82.6572 131.858 82.7324 131.766 82.7893C131.676 82.844 131.576 82.8714 131.464 82.8715Z" fill="white"/>
<path d="M176.588 82.8528C176.423 82.8529 176.281 82.7926 176.162 82.6719C176.043 82.5513 175.984 82.4067 175.984 82.2381C175.984 82.0696 176.043 81.925 176.162 81.8042C176.28 81.6835 176.422 81.623 176.588 81.623C176.753 81.6229 176.896 81.6832 177.014 81.8039C177.133 81.9245 177.192 82.0691 177.192 82.2376C177.192 82.3492 177.164 82.4518 177.108 82.5452C177.055 82.6386 176.982 82.7137 176.89 82.7707C176.801 82.8254 176.7 82.8528 176.588 82.8528Z" fill="white"/>
<path d="M233.362 82.8299C233.196 82.83 233.054 82.7697 232.936 82.649C232.817 82.5284 232.758 82.3838 232.758 82.2153C232.758 82.0467 232.817 81.9021 232.935 81.7813C233.054 81.6606 233.196 81.6002 233.362 81.6001C233.527 81.6 233.669 81.6603 233.788 81.781C233.906 81.9016 233.966 82.0462 233.966 82.2148C233.966 82.3264 233.938 82.4289 233.882 82.5223C233.828 82.6157 233.756 82.6908 233.664 82.7478C233.575 82.8025 233.474 82.8299 233.362 82.8299Z" fill="white"/>
<path fill-rule="evenodd" clip-rule="evenodd" d="M136.508 5.36312C136.769 4.83967 136.899 4.21863 136.899 3.5C136.899 2.78137 136.769 2.16033 136.508 1.63688C136.246 1.11344 135.888 0.709759 135.433 0.425856C134.977 0.141952 134.457 0 133.872 0C133.287 0 132.767 0.141952 132.311 0.425856C131.856 0.709759 131.497 1.11344 131.236 1.63688C130.975 2.16033 130.844 2.78137 130.844 3.5C130.844 4.21863 130.975 4.83967 131.236 5.36312C131.497 5.88656 131.856 6.29024 132.311 6.57414C132.767 6.85805 133.287 7 133.872 7C134.457 7 134.977 6.85805 135.433 6.57414C135.888 6.29024 136.246 5.88656 136.508 5.36312ZM135.798 2.00618C135.996 2.41207 136.096 2.91001 136.096 3.5C136.096 4.08999 135.996 4.58793 135.798 4.99382C135.601 5.39971 135.334 5.70691 134.997 5.9154C134.662 6.12389 134.287 6.22814 133.872 6.22814C133.457 6.22814 133.08 6.12389 132.743 5.9154C132.408 5.70691 132.142 5.39971 131.943 4.99382C131.746 4.58793 131.648 4.08999 131.648 3.5C131.648 2.91001 131.746 2.41207 131.943 2.00618C132.142 1.60029 132.408 1.29309 132.743 1.0846C133.08 0.876109 133.457 0.771863 133.872 0.771863C134.287 0.771863 134.662 0.876109 134.997 1.0846C135.334 1.29309 135.601 1.60029 135.798 2.00618Z" fill="white"/>
<path d="M96.9609 0.0932617V0.825201H99.1177V6.90695H99.9483V0.825201H102.105V0.0932617H96.9609Z" fill="white"/>
<path d="M106.5 6.90695V0.0932617H107.331V3.12749H110.988V0.0932617H111.819V6.90695H110.988V3.85942H107.331V6.90695H106.5Z" fill="white"/>
<path d="M116.594 6.90695V0.0932617H120.733V0.825201H117.424V3.12749H120.519V3.85942H117.424V6.17501H120.787V6.90695H116.594Z" fill="white"/>
<path fill-rule="evenodd" clip-rule="evenodd" d="M143.724 0.0932617H141.406V6.90695H142.237V4.24536H143.737C143.797 4.24536 143.855 4.24426 143.912 4.24207L145.358 6.90695H146.323L144.773 4.09732C144.87 4.06451 144.962 4.02624 145.047 3.98252C145.388 3.80508 145.642 3.5611 145.807 3.25058C145.972 2.94007 146.055 2.58408 146.055 2.18262C146.055 1.78116 145.972 1.42296 145.807 1.108C145.642 0.79304 145.387 0.545733 145.043 0.366076C144.7 0.1842 144.26 0.0932617 143.724 0.0932617ZM142.237 3.50011H143.711C144.077 3.50011 144.371 3.44688 144.595 3.34041C144.82 3.23395 144.983 3.08313 145.084 2.88794C145.186 2.69054 145.238 2.45543 145.238 2.18262C145.238 1.90981 145.186 1.67137 145.084 1.46732C144.981 1.26326 144.817 1.10578 144.591 0.994878C144.366 0.88176 144.068 0.825201 143.697 0.825201H142.237V3.50011Z" fill="white"/>
<path d="M154.947 1.62025C155.067 1.79769 155.164 1.99842 155.238 2.22243H156.095C156.033 1.89195 155.919 1.59141 155.754 1.32082C155.588 1.048 155.382 0.814005 155.134 0.618821C154.888 0.421419 154.608 0.269487 154.293 0.163023C153.981 0.0543412 153.644 0 153.282 0C152.842 0 152.439 0.0809574 152.073 0.242871C151.707 0.404785 151.39 0.637674 151.122 0.94154C150.854 1.24541 150.646 1.61359 150.499 2.0461C150.354 2.47639 150.281 2.96103 150.281 3.5C150.281 4.21863 150.409 4.83967 150.663 5.36312C150.92 5.88656 151.277 6.29024 151.735 6.57414C152.195 6.85805 152.728 7 153.336 7C153.88 7 154.363 6.88688 154.782 6.66065C155.204 6.43219 155.535 6.11058 155.774 5.69582C156.015 5.28105 156.135 4.79309 156.135 4.23194V3.5H153.523V4.23194H155.331C155.324 4.62663 155.24 4.97153 155.077 5.26663C154.91 5.57272 154.675 5.81004 154.374 5.97861C154.075 6.14496 153.729 6.22814 153.336 6.22814C152.911 6.22814 152.53 6.12389 152.19 5.9154C151.851 5.70691 151.582 5.39971 151.383 4.99382C151.184 4.58793 151.085 4.08999 151.085 3.5C151.085 2.91001 151.183 2.41207 151.38 2.00618C151.576 1.60029 151.841 1.29309 152.173 1.0846C152.506 0.876109 152.876 0.771863 153.282 0.771863C153.53 0.771863 153.758 0.805133 153.965 0.871673C154.173 0.938213 154.358 1.0347 154.521 1.16112C154.686 1.28755 154.828 1.44059 154.947 1.62025Z" fill="white"/>
<path fill-rule="evenodd" clip-rule="evenodd" d="M159.867 6.90695H160.738L161.427 4.9773H164.201L164.891 6.90695H165.761L163.243 0.0932617H162.386L159.867 6.90695ZM163.94 4.24536L162.841 1.17121H162.787L161.689 4.24536H163.94Z" fill="white"/>
<path d="M174.58 6.90695H175.384V0.0932617H174.567V5.45638H174.5L170.749 0.0932617H169.945V6.90695H170.776V1.55714H170.843L174.58 6.90695Z" fill="white"/>
<path d="M180.156 6.90695H180.987V0.0932617H180.156V6.90695Z" fill="white"/>
<path d="M185.541 6.30809V6.90695H190.27V6.17501H186.532L190.229 0.692121V0.0932617H185.5V0.825201H189.238L185.541 6.30809Z" fill="white"/>
<path fill-rule="evenodd" clip-rule="evenodd" d="M194.18 6.90695H195.05L195.74 4.9773H198.514L199.203 6.90695H200.074L197.556 0.0932617H196.698L194.18 6.90695ZM198.252 4.24536L197.154 1.17121H197.1L196.002 4.24536H198.252Z" fill="white"/>
<path d="M203.078 0.0932617V0.825201H205.235V6.90695H206.066V0.825201H208.223V0.0932617H203.078Z" fill="white"/>
<path d="M212.617 6.90695H213.447V0.0932617H212.617V6.90695Z" fill="white"/>
<path fill-rule="evenodd" clip-rule="evenodd" d="M223.624 5.36312C223.885 4.83967 224.016 4.21863 224.016 3.5C224.016 2.78137 223.885 2.16033 223.624 1.63688C223.363 1.11344 223.005 0.709759 222.549 0.425856C222.094 0.141952 221.573 0 220.988 0C220.404 0 219.883 0.141952 219.428 0.425856C218.972 0.709759 218.614 1.11344 218.353 1.63688C218.092 2.16033 217.961 2.78137 217.961 3.5C217.961 4.21863 218.092 4.83967 218.353 5.36312C218.614 5.88656 218.972 6.29024 219.428 6.57414C219.883 6.85805 220.404 7 220.988 7C221.573 7 222.094 6.85805 222.549 6.57414C223.005 6.29024 223.363 5.88656 223.624 5.36312ZM222.914 2.00618C223.113 2.41207 223.212 2.91001 223.212 3.5C223.212 4.08999 223.113 4.58793 222.914 4.99382C222.718 5.39971 222.451 5.70691 222.114 5.9154C221.779 6.12389 221.404 6.22814 220.988 6.22814C220.573 6.22814 220.197 6.12389 219.86 5.9154C219.525 5.70691 219.258 5.39971 219.059 4.99382C218.863 4.58793 218.765 4.08999 218.765 3.5C218.765 2.91001 218.863 2.41207 219.059 2.00618C219.258 1.60029 219.525 1.29309 219.86 1.0846C220.197 0.876109 220.573 0.771863 220.988 0.771863C221.404 0.771863 221.779 0.876109 222.114 1.0846C222.451 1.29309 222.718 1.60029 222.914 2.00618Z" fill="white"/>
<path d="M233.158 6.90695H233.962V0.0932617H233.145V5.45638H233.078L229.327 0.0932617H228.523V6.90695H229.354V1.55714H229.42L233.158 6.90695Z" fill="white"/>
<path fill-rule="evenodd" clip-rule="evenodd" d="M37.8413 11.6379L52.786 28.1871C54.4572 30.0377 54.3502 32.9284 52.5471 34.6436C50.744 36.3588 47.9275 36.249 46.2563 34.3984L31.3117 17.8492C29.6405 15.9986 29.7474 13.1079 31.5505 11.3927C33.3537 9.6775 36.1701 9.78728 37.8413 11.6379Z" fill="#FE393C"/>
<mask id="mask0_518_1380" style="mask-type:alpha" maskUnits="userSpaceOnUse" x="30" y="10" width="24" height="26">
<path fill-rule="evenodd" clip-rule="evenodd" d="M37.8413 11.6379L52.7859 28.1871C54.4571 30.0377 54.3502 32.9284 52.547 34.6436C50.7439 36.3588 47.9274 36.249 46.2563 34.3984L31.3116 17.8492C29.6404 15.9986 29.7474 13.1079 31.5505 11.3927C33.3536 9.6775 36.1701 9.78728 37.8413 11.6379Z" fill="#FFBF23"/>
</mask>
<g mask="url(#mask0_518_1380)">
<path fill-rule="evenodd" clip-rule="evenodd" d="M29.3251 37.8019L19.69 46.9869C17.8891 48.7036 15.0732 48.597 13.4005 46.7486C11.7278 44.9003 11.8318 42.0102 13.6326 40.2935L17.1248 36.9645L17.1568 36.9339L31.08 23.6612C36.1888 18.7912 44.1769 19.0937 48.922 24.3371L57.8712 34.2259C59.5439 36.0743 59.44 38.9644 57.6391 40.6811C55.8382 42.3979 53.0223 42.2912 51.3496 40.4429L42.4003 30.554C41.0006 29.0073 38.6443 28.9181 37.1374 30.3546L29.3574 37.7711L29.3251 37.8019Z" fill="#B83032"/>
</g>
<path d="M42.1292 71.711L49.9246 64.2799L49.9352 64.2698L59.5766 55.0788C61.3775 53.3621 61.4814 50.472 59.8087 48.6237C58.136 46.7754 55.3201 46.6687 53.5192 48.3855L36.0719 65.0177C34.5649 66.4542 32.2086 66.365 30.8089 64.8183L21.8597 54.9294C20.187 53.0811 17.3711 52.9744 15.5702 54.6911C13.7693 56.4079 13.6653 59.298 15.338 61.1463L24.2873 71.0352C29.0324 76.2785 37.0205 76.5811 42.1292 71.711Z" fill="#00B84D"/>
<path fill-rule="evenodd" clip-rule="evenodd" d="M31.1142 39.3649L21.4791 48.5499C19.6782 50.2666 16.8623 50.16 15.1896 48.3116C13.5169 46.4633 13.6208 43.5732 15.4217 41.8565L18.9138 38.5275L18.9459 38.4969L32.8691 25.2242C37.9778 20.3542 45.9659 20.6567 50.711 25.9L59.6602 35.7889C61.333 37.6373 61.229 40.5274 59.4281 42.2441C57.6272 43.9609 54.8113 43.8542 53.1386 42.0059L44.1894 32.117C42.7897 30.5703 40.4334 30.481 38.9264 31.9176L31.1464 39.3341L31.1142 39.3649Z" fill="#FFBF23"/>
</g>
<defs>
<clipPath id="clip0_518_1380">
<rect width="235" height="85" fill="white"/>
</clipPath>
</defs>
</svg>
