<svg width="55" height="42" viewBox="0 0 55 42" fill="none" xmlns="http://www.w3.org/2000/svg">
<g clip-path="url(#clip0_1_6059)">
<path d="M54.1978 18.1232H34.6738V13.126H54.1978V18.1232Z" fill="#E669A2"/>
<path d="M51.6619 18.1236H34.6738V5.625H51.6619V18.1236Z" fill="#F3BE26"/>
<path d="M44.6433 18.1232H34.6738V0.629883H44.6433V18.1232Z" fill="#EE9C34"/>
<path d="M46.6047 18.1224H34.6738V2.58105H46.6047V18.1224Z" fill="#F3BC87"/>
<path d="M34.6738 2.58496V18.1217H44.645V2.58496H34.6738Z" fill="#E3721C"/>
<path d="M24.6777 18.124H34.6749V20.6229H24.6777V18.124Z" fill="#AD1B02"/>
<path d="M34.6738 5.62109V18.1209H46.6132V5.62109H34.6738Z" fill="#E88D14"/>
<path d="M34.6738 5.62109V18.1209H44.645V5.62109H34.6738Z" fill="#D85604"/>
<path d="M40.9083 18.122H34.6738V10.6201H40.9083V18.122Z" fill="#C14303"/>
<path d="M34.6738 13.1289V18.121H51.6704V13.1289H34.6738Z" fill="#DB4E18"/>
<path d="M34.6738 13.1289V18.121H46.6132V13.1289H34.6738Z" fill="#D1390D"/>
<path d="M34.6738 13.1289V18.121H44.645V13.1289H34.6738Z" fill="#C22303"/>
<path d="M34.6738 13.1289V18.121H40.9172V13.1289H34.6738Z" fill="#AD1B02"/>
<path d="M36.8524 27.5354C35.1514 27.8378 34.2442 29.123 34.2442 31.3532C34.2442 33.6212 35.4538 35.1332 37.2304 35.1332C38.0998 35.1332 38.8558 34.8308 40.4434 34.037C40.4434 35.8892 40.4434 35.8892 40.4434 35.8892C38.5156 36.7964 37.3816 37.0232 35.8696 37.0232C34.1686 37.0232 32.959 36.6074 32.014 35.5868C31.0312 34.604 30.502 33.3188 30.502 31.8446C30.502 28.6316 32.9212 26.4014 36.4366 26.4014C38.7424 26.4014 40.3678 27.4976 40.3678 29.0474C40.3678 30.068 39.6118 30.7862 38.5156 30.7862C37.9486 30.7862 37.495 30.5972 36.8524 30.257" fill="#525252"/>
<path d="M28.3447 31.8446C29.8945 29.9168 30.4615 29.123 30.4615 28.178C30.4615 27.233 29.7055 26.4014 28.6471 26.4014C28.0423 26.4014 27.4753 26.7416 27.2107 27.044C27.2107 31.013 27.2107 31.013 27.2107 31.013C24.6781 34.415 24.6781 34.415 24.6781 34.415C24.6781 26.7038 24.6781 26.7038 24.6781 26.7038C22.2589 26.7038 22.2589 26.7038 22.2589 26.7038C18.252 33.3188 18.252 33.3188 18.252 33.3188C18.252 26.7038 18.252 26.7038 18.252 26.7038C16.8912 26.7038 16.8912 26.7038 16.8912 26.7038C13.2246 27.5354 13.2246 27.5354 13.2246 27.5354C13.2246 28.4804 13.2246 28.4804 13.2246 28.4804C15.228 28.6694 15.228 28.6694 15.228 28.6694C15.228 36.872 15.228 36.872 15.228 36.872C17.7606 36.872 17.7606 36.872 17.7606 36.872C21.6163 30.5216 21.6163 30.5216 21.6163 30.5216C21.6163 36.872 21.6163 36.872 21.6163 36.872C24.4513 36.872 24.4513 36.872 24.4513 36.872" fill="#525252"/>
<path d="M5.55282 35.5872C5.85523 35.5872 5.93083 35.5872 6.11983 35.5872C8.16104 35.5872 9.29505 34.3397 9.29505 31.8449C9.29505 29.7659 8.38784 28.6319 6.68683 28.6319C6.46003 28.6319 6.11983 28.6697 5.55282 28.7831V35.5872ZM5.55282 40.0476C7.21603 40.4256 7.21603 40.4256 7.21603 40.4256C7.21603 41.3706 7.21603 41.3706 7.21603 41.3706C0.676591 41.3706 0.676592 41.3706 0.676592 41.3706C0.676592 40.4256 0.676592 40.4256 0.676592 40.4256C2.1886 40.0476 2.1886 40.0476 2.1886 40.0476C2.1886 28.6319 2.1886 28.6319 2.1886 28.6319C0.52539 28.6319 0.525391 28.6319 0.525391 28.6319C0.525391 27.6869 0.525391 27.6869 0.525391 27.6869C4.49442 26.4773 4.49442 26.4773 4.49442 26.4773C5.55282 26.4773 5.55282 26.4773 5.55282 26.4773C5.55282 27.8381 5.55282 27.8381 5.55282 27.8381C7.40504 26.7041 8.04764 26.5151 9.03045 26.5151C11.2229 26.5151 12.8861 28.5563 12.8861 31.3913C12.8861 34.6421 10.6559 36.8724 7.25383 36.8724C6.87583 36.8724 6.23323 36.8346 5.55282 36.7968" fill="#525252"/>
</g>
<defs>
<clipPath id="clip0_1_6059">
<rect width="53.6763" height="40.7401" fill="white" transform="translate(0.521484 0.629883)"/>
</clipPath>
</defs>
</svg>
