<?xml version="1.0" encoding="UTF-8" standalone="no" ?>
<!DOCTYPE svg PUBLIC "-//W3C//DTD SVG 1.1//EN" "http://www.w3.org/Graphics/SVG/1.1/DTD/svg11.dtd">
<svg xmlns="http://www.w3.org/2000/svg" xmlns:xlink="http://www.w3.org/1999/xlink" version="1.1" width="1080" height="1080" viewBox="0 0 1080 1080" xml:space="preserve">
<desc>Created with Fabric.js 5.2.4</desc>
<defs>
</defs>
<g transform="matrix(1 0 0 1 540 540)" id="14882c23-d50d-4685-9f13-82338248e316"  >
<rect style="stroke: none; stroke-width: 1; stroke-dasharray: none; stroke-linecap: butt; stroke-dashoffset: 0; stroke-linejoin: miter; stroke-miterlimit: 4; fill: rgb(255,255,255); fill-rule: nonzero; opacity: 1; visibility: hidden;" vector-effect="non-scaling-stroke"  x="-540" y="-540" rx="0" ry="0" width="1080" height="1080" />
</g>
<g transform="matrix(1 0 0 1 540 540)" id="9472641d-85cc-4725-a951-7f652fb98058"  >
</g>
<g transform="matrix(38.57 0 0 38.57 540 540)"  >
<path style="stroke: none; stroke-width: 1; stroke-dasharray: none; stroke-linecap: butt; stroke-dashoffset: 0; stroke-linejoin: miter; stroke-miterlimit: 4; fill: rgb(0,76,146); fill-rule: nonzero; opacity: 1;"  transform=" translate(-14, -11)" d="M 1.25868 0.00641641 C 1.14942 0.0421402 1.05494 0.112795 0.98978 0.207497 C 0.924625 0.3022 0.892412 0.415697 0.898104 0.530507 L 0.898104 16.2532 C 0.898104 16.3922 0.953321 16.5255 1.05161 16.6238 C 1.14989 16.7221 1.2832 16.7773 1.42219 16.7773 L 6.13901 16.7773 L 6.13901 21.4941 C 6.14266 21.599 6.1777 21.7004 6.23962 21.7851 C 6.30153 21.8698 6.38745 21.934 6.48626 21.9694 C 6.58507 22.0047 6.69222 22.0096 6.79383 21.9834 C 6.89544 21.9571 6.98683 21.901 7.05617 21.8222 L 11.708 16.7773 L 26.5785 16.7773 C 26.7175 16.7773 26.8508 16.7221 26.9491 16.6238 C 27.0474 16.5255 27.1026 16.3922 27.1026 16.2532 L 27.1026 0.530507 C 27.1026 0.391509 27.0474 0.258205 26.9491 0.159919 C 26.8508 0.061633 26.7175 0.00641641 26.5785 0.00641641 L 1.42219 0.00641641 C 1.36802 -0.0021388 1.31285 -0.0021388 1.25868 0.00641641 Z M 1.94629 1.0546 L 26.0544 1.0546 L 26.0544 15.7291 L 11.5109 15.7291 C 11.4376 15.7274 11.3648 15.741 11.2971 15.7692 C 11.2293 15.7973 11.1683 15.8394 11.1179 15.8926 L 7.18719 20.1525 L 7.18719 16.2532 C 7.18719 16.1142 7.13197 15.9809 7.03369 15.8826 C 6.9354 15.7843 6.8021 15.7291 6.6631 15.7291 L 1.94629 15.7291 L 1.94629 1.0546 Z M 8.95652 6.81959 C 7.96075 6.81959 7.18719 7.65604 7.18719 8.65391 C 7.18719 9.65178 7.9597 10.5207 8.95652 10.5207 C 9.95229 10.5207 10.7573 9.65178 10.7573 8.65391 C 10.7573 7.65604 9.95334 6.81959 8.95652 6.81959 Z M 14.0004 6.81959 C 13.0046 6.81959 12.231 7.65604 12.231 8.65391 C 12.231 9.65178 13.0046 10.5207 14.0004 10.5207 C 14.9961 10.5207 15.7697 9.65178 15.7697 8.65391 C 15.7697 7.65604 14.9961 6.81959 14.0004 6.81959 Z M 19.0453 6.81959 C 18.0495 6.81959 17.2424 7.65604 17.2424 8.65391 C 17.2424 9.65178 18.0495 10.5207 19.0453 10.5207 C 20.041 10.5207 20.8135 9.65178 20.8135 8.65391 C 20.8135 7.65604 20.0421 6.81959 19.0453 6.81959 Z M 8.95652 7.86777 C 9.27726 7.86777 9.70911 8.2556 9.70911 8.65391 C 9.70911 9.05222 9.27726 9.47254 8.95547 9.47254 C 8.63473 9.47254 8.23537 9.05327 8.23537 8.65391 C 8.23537 8.2556 8.63368 7.86777 8.95652 7.86777 Z M 14.0004 7.86777 C 14.3222 7.86777 14.7215 8.2556 14.7215 8.65391 C 14.7215 9.05222 14.3222 9.47254 14.0004 9.47254 C 13.6786 9.47254 13.2792 9.05327 13.2792 8.65391 C 13.2792 8.2556 13.6786 7.86777 14.0004 7.86777 Z M 19.0453 7.86777 C 19.366 7.86777 19.7654 8.2556 19.7654 8.65391 C 19.7654 9.05222 19.3671 9.47254 19.0442 9.47254 C 18.7235 9.47254 18.2916 9.05327 18.2916 8.65391 C 18.2916 8.2556 18.7245 7.86777 19.0453 7.86777 Z" stroke-linecap="round" />
</g>
<g transform="matrix(NaN NaN NaN NaN 0 0)"  >
<g style=""   >
</g>
</g>
<g transform="matrix(NaN NaN NaN NaN 0 0)"  >
<g style=""   >
</g>
</g>
</svg>