<?xml version="1.0" encoding="UTF-8" standalone="no" ?>
<!DOCTYPE svg PUBLIC "-//W3C//DTD SVG 1.1//EN" "http://www.w3.org/Graphics/SVG/1.1/DTD/svg11.dtd">
<svg xmlns="http://www.w3.org/2000/svg" xmlns:xlink="http://www.w3.org/1999/xlink" version="1.1" width="1080" height="1080" viewBox="0 0 1080 1080" xml:space="preserve">
<desc>Created with Fabric.js 5.2.4</desc>
<defs>
</defs>
<g transform="matrix(1 0 0 1 540 540)" id="1dc86a5d-5a0a-49d8-a976-a69522514b3f"  >
<rect style="stroke: none; stroke-width: 1; stroke-dasharray: none; stroke-linecap: butt; stroke-dashoffset: 0; stroke-linejoin: miter; stroke-miterlimit: 4; fill: rgb(255,255,255); fill-rule: nonzero; opacity: 1; visibility: hidden;" vector-effect="non-scaling-stroke"  x="-540" y="-540" rx="0" ry="0" width="1080" height="1080" />
</g>
<g transform="matrix(1 0 0 1 540 540)" id="0478299b-4972-4060-a59a-7007569df19a"  >
</g>
<g transform="matrix(49.09 0 0 49.09 540 540)"  >
<g style=""   >
		<g transform="matrix(1 0 0 1 0 -0.34)"  >
<path style="stroke: none; stroke-width: 1; stroke-dasharray: none; stroke-linecap: butt; stroke-dashoffset: 0; stroke-linejoin: miter; stroke-miterlimit: 4; fill: rgb(255,191,35); fill-rule: nonzero; opacity: 1;" vector-effect="non-scaling-stroke"  transform=" translate(-11, -10.66)" d="M 20.2812 19.9375 L 1.71875 19.9375 C 1.15019 19.9375 0.6875 19.4748 0.6875 18.9062 L 0.6875 14.7812 C 0.6875 14.6901 0.723716 14.6026 0.788182 14.5382 C 0.852648 14.4737 0.940082 14.4375 1.03125 14.4375 C 1.12242 14.4375 1.20985 14.4737 1.27432 14.5382 C 1.33878 14.6026 1.375 14.6901 1.375 14.7812 L 1.375 18.9062 C 1.375 19.0953 1.52969 19.25 1.71875 19.25 L 20.2812 19.25 C 20.4703 19.25 20.625 19.0953 20.625 18.9062 L 20.625 14.7812 C 20.625 14.6901 20.6612 14.6026 20.7257 14.5382 C 20.7901 14.4737 20.8776 14.4375 20.9688 14.4375 C 21.0599 14.4375 21.1474 14.4737 21.2118 14.5382 C 21.2763 14.6026 21.3125 14.6901 21.3125 14.7812 L 21.3125 18.9062 C 21.3125 19.4748 20.8498 19.9375 20.2812 19.9375 Z M 14.7812 4.125 C 14.6901 4.125 14.6026 4.08878 14.5382 4.02432 C 14.4737 3.95985 14.4375 3.87242 14.4375 3.78125 L 14.4375 2.40625 C 14.4375 2.21719 14.2828 2.0625 14.0938 2.0625 L 7.90625 2.0625 C 7.71719 2.0625 7.5625 2.21719 7.5625 2.40625 L 7.5625 3.78125 C 7.5625 3.87242 7.52628 3.95985 7.46182 4.02432 C 7.39735 4.08878 7.30992 4.125 7.21875 4.125 C 7.12758 4.125 7.04015 4.08878 6.97568 4.02432 C 6.91122 3.95985 6.875 3.87242 6.875 3.78125 L 6.875 2.40625 C 6.875 1.83769 7.33769 1.375 7.90625 1.375 L 14.0938 1.375 C 14.6623 1.375 15.125 1.83769 15.125 2.40625 L 15.125 3.78125 C 15.125 3.87242 15.0888 3.95985 15.0243 4.02432 C 14.9599 4.08878 14.8724 4.125 14.7812 4.125 Z M 18.9062 14.4375 L 17.5312 14.4375 C 17.4401 14.4375 17.3526 14.4013 17.2882 14.3368 C 17.2237 14.2724 17.1875 14.1849 17.1875 14.0938 C 17.1875 14.0026 17.2237 13.9151 17.2882 13.8507 C 17.3526 13.7862 17.4401 13.75 17.5312 13.75 L 18.9062 13.75 C 19.8543 13.75 20.625 12.9793 20.625 12.0312 L 20.625 5.5 L 2.40625 5.5 C 2.31508 5.5 2.22765 5.46378 2.16318 5.39932 C 2.09872 5.33485 2.0625 5.24742 2.0625 5.15625 C 2.0625 5.06508 2.09872 4.97765 2.16318 4.91318 C 2.22765 4.84872 2.31508 4.8125 2.40625 4.8125 L 20.9688 4.8125 C 21.0599 4.8125 21.1474 4.84872 21.2118 4.91318 C 21.2763 4.97765 21.3125 5.06508 21.3125 5.15625 L 21.3125 12.0312 C 21.3125 13.3581 20.2331 14.4375 18.9062 14.4375 Z" stroke-linecap="round" />
</g>
		<g transform="matrix(1 0 0 1 -2.41 -0.69)"  >
<path style="stroke: none; stroke-width: 1; stroke-dasharray: none; stroke-linecap: butt; stroke-dashoffset: 0; stroke-linejoin: miter; stroke-miterlimit: 4; fill: rgb(255,191,35); fill-rule: nonzero; opacity: 1;" vector-effect="non-scaling-stroke"  transform=" translate(-8.59, -10.31)" d="M 4.46875 14.4375 L 3.09375 14.4375 C 1.76688 14.4375 0.6875 13.3581 0.6875 12.0312 L 0.6875 5.15625 C 0.6875 5.06508 0.723716 4.97765 0.788182 4.91318 C 0.852648 4.84872 0.940082 4.8125 1.03125 4.8125 C 1.12242 4.8125 1.20985 4.84872 1.27432 4.91318 C 1.33878 4.97765 1.375 5.06508 1.375 5.15625 L 1.375 12.0312 C 1.375 12.9793 2.14569 13.75 3.09375 13.75 L 4.46875 13.75 C 4.55992 13.75 4.64735 13.7862 4.71182 13.8507 C 4.77628 13.9151 4.8125 14.0026 4.8125 14.0938 C 4.8125 14.1849 4.77628 14.2724 4.71182 14.3368 C 4.64735 14.4013 4.55992 14.4375 4.46875 14.4375 Z M 13.4062 14.4375 L 8.59375 14.4375 C 8.50258 14.4375 8.41515 14.4013 8.35068 14.3368 C 8.28622 14.2724 8.25 14.1849 8.25 14.0938 C 8.25 14.0026 8.28622 13.9151 8.35068 13.8507 C 8.41515 13.7862 8.50258 13.75 8.59375 13.75 L 13.4062 13.75 C 13.4974 13.75 13.5849 13.7862 13.6493 13.8507 C 13.7138 13.9151 13.75 14.0026 13.75 14.0938 C 13.75 14.1849 13.7138 14.2724 13.6493 14.3368 C 13.5849 14.4013 13.4974 14.4375 13.4062 14.4375 Z M 6.53125 15.8125 C 5.96269 15.8125 5.5 15.3498 5.5 14.7812 L 5.5 12.7188 C 5.5 12.6276 5.53622 12.5401 5.60068 12.4757 C 5.66515 12.4112 5.75258 12.375 5.84375 12.375 L 7.21875 12.375 C 7.30992 12.375 7.39735 12.4112 7.46182 12.4757 C 7.52628 12.5401 7.5625 12.6276 7.5625 12.7188 L 7.5625 14.7812 C 7.5625 15.3498 7.09981 15.8125 6.53125 15.8125 Z M 6.1875 13.0625 L 6.1875 14.7812 C 6.1875 14.9703 6.34219 15.125 6.53125 15.125 C 6.72031 15.125 6.875 14.9703 6.875 14.7812 L 6.875 13.0625 L 6.1875 13.0625 Z M 15.4688 15.8125 C 14.9002 15.8125 14.4375 15.3498 14.4375 14.7812 L 14.4375 12.7188 C 14.4375 12.6276 14.4737 12.5401 14.5382 12.4757 C 14.6026 12.4112 14.6901 12.375 14.7812 12.375 L 16.1562 12.375 C 16.2474 12.375 16.3349 12.4112 16.3993 12.4757 C 16.4638 12.5401 16.5 12.6276 16.5 12.7188 L 16.5 14.7812 C 16.5 15.3498 16.0373 15.8125 15.4688 15.8125 Z M 15.125 13.0625 L 15.125 14.7812 C 15.125 14.9703 15.2797 15.125 15.4688 15.125 C 15.6578 15.125 15.8125 14.9703 15.8125 14.7812 L 15.8125 13.0625 L 15.125 13.0625 Z" stroke-linecap="round" />
</g>
</g>
</g>
<g transform="matrix(NaN NaN NaN NaN 0 0)"  >
<g style=""   >
</g>
</g>
<g transform="matrix(NaN NaN NaN NaN 0 0)"  >
<g style=""   >
</g>
</g>
</svg>