<?xml version="1.0" encoding="UTF-8" standalone="no" ?>
<!DOCTYPE svg PUBLIC "-//W3C//DTD SVG 1.1//EN" "http://www.w3.org/Graphics/SVG/1.1/DTD/svg11.dtd">
<svg xmlns="http://www.w3.org/2000/svg" xmlns:xlink="http://www.w3.org/1999/xlink" version="1.1" width="1080" height="1080" viewBox="0 0 1080 1080" xml:space="preserve">
<desc>Created with Fabric.js 5.2.4</desc>
<defs>
</defs>
<g transform="matrix(1 0 0 1 540 540)" id="30abf79b-f328-4fa6-8353-d4aca8e57675"  >
<rect style="stroke: none; stroke-width: 1; stroke-dasharray: none; stroke-linecap: butt; stroke-dashoffset: 0; stroke-linejoin: miter; stroke-miterlimit: 4; fill: rgb(255,255,255); fill-rule: nonzero; opacity: 1; visibility: hidden;" vector-effect="non-scaling-stroke"  x="-540" y="-540" rx="0" ry="0" width="1080" height="1080" />
</g>
<g transform="matrix(1 0 0 1 540 540)" id="3a377550-eb1f-4fa8-a4e8-6f051512e4d7"  >
</g>
<g transform="matrix(38.57 0 0 38.57 696.96 540)"  >
<g style=""   >
		<g transform="matrix(1 0 0 1 -3.92 -5.5)"  >
<path style="stroke: none; stroke-width: 1; stroke-dasharray: none; stroke-linecap: butt; stroke-dashoffset: 0; stroke-linejoin: miter; stroke-miterlimit: 4; fill: rgb(0,184,77); fill-rule: nonzero; opacity: 1;" vector-effect="non-scaling-stroke"  transform=" translate(-10.08, -5.5)" d="M 10.0755 8.05493 C 10.034 8.05493 10.0063 8.05493 9.9648 8.0411 L 3.3904 5.81272 C 3.25199 5.7712 3.16895 5.64664 3.16895 5.50823 C 3.16895 5.36982 3.25199 5.24524 3.3904 5.20373 L 9.9648 2.97536 C 10.034 2.94767 10.1032 2.94767 10.1724 2.97536 L 16.7606 5.20373 C 16.8852 5.24524 16.9821 5.36982 16.9821 5.50823 C 16.9821 5.64664 16.8852 5.7712 16.7606 5.81272 L 10.1724 8.0411 C 10.1447 8.05493 10.1032 8.05493 10.0755 8.05493 Z M 4.49767 5.50823 L 10.0755 7.39059 L 15.6534 5.50823 L 10.0755 3.62587 L 4.49767 5.50823 Z" stroke-linecap="round" />
</g>
		<g transform="matrix(1 0 0 1 -4.99 -1.95)"  >
<path style="stroke: none; stroke-width: 1; stroke-dasharray: none; stroke-linecap: butt; stroke-dashoffset: 0; stroke-linejoin: miter; stroke-miterlimit: 4; fill: rgb(0,184,77); fill-rule: nonzero; opacity: 1;" vector-effect="non-scaling-stroke"  transform=" translate(-9.01, -9.05)" d="M 3.33489 9.77199 C 3.18264 9.77199 3.04423 9.66125 3.01655 9.49517 C 2.98886 9.31524 3.11344 9.14914 3.29336 9.12147 C 3.44561 9.10762 3.55633 9.03842 3.62555 8.92769 C 3.76396 8.74776 3.77779 8.40174 3.66707 7.95884 C 3.21031 5.93807 4.5944 5.59204 4.60824 5.59204 L 4.74665 6.22873 L 4.7605 6.22873 C 4.67745 6.24256 3.99924 6.46401 4.30374 7.82043 C 4.44215 8.4571 4.40063 8.95537 4.16534 9.30139 C 3.98541 9.55053 3.72243 9.71661 3.39025 9.77199 C 3.37641 9.77199 3.34872 9.77199 3.33489 9.77199 Z M 10.0479 12.5123 C 10.0064 12.5123 9.95101 12.4985 9.90949 12.4708 L 5.30048 10.1455 C 5.18976 10.0902 5.12056 9.97944 5.12056 9.85488 L 5.12056 6.1732 C 5.12056 5.99327 5.27281 5.84102 5.45273 5.84102 C 5.63267 5.84102 5.77108 5.99327 5.77108 6.1732 L 5.77108 9.66109 L 10.0479 11.8203 L 14.3663 9.66109 L 14.3663 6.1732 C 14.3663 5.99327 14.5184 5.84102 14.6984 5.84102 C 14.8784 5.84102 15.0168 5.99327 15.0168 6.1732 L 15.0168 9.85488 C 15.0168 9.97944 14.9476 10.0902 14.8368 10.1455 L 10.2002 12.4708 C 10.1448 12.4985 10.1033 12.5123 10.0479 12.5123 Z" stroke-linecap="round" />
</g>
		<g transform="matrix(1 0 0 1 -3.92 -2.42)"  >
<path style="stroke: none; stroke-width: 1; stroke-dasharray: none; stroke-linecap: butt; stroke-dashoffset: 0; stroke-linejoin: miter; stroke-miterlimit: 4; fill: rgb(0,184,77); fill-rule: nonzero; opacity: 1;" vector-effect="non-scaling-stroke"  transform=" translate(-10.08, -8.58)" d="M 6.79686 10.8648 C 6.61692 10.8648 6.47852 10.7126 6.47852 10.5327 L 6.47852 6.62954 C 6.47852 6.44961 6.61692 6.29736 6.79686 6.29736 C 6.97678 6.29736 7.11519 6.44961 7.11519 6.62954 L 7.11519 10.5327 C 7.11519 10.7126 6.97678 10.8648 6.79686 10.8648 Z M 13.3436 10.851 C 13.1774 10.851 13.0253 10.7126 13.0253 10.5327 L 13.0253 6.62954 C 13.0253 6.44961 13.1774 6.29736 13.3436 6.29736 C 13.5235 6.29736 13.6758 6.44961 13.6758 6.62954 L 13.6758 10.5327 C 13.6758 10.7126 13.5235 10.851 13.3436 10.851 Z" stroke-linecap="round" />
</g>
		<g transform="matrix(1 0 0 1 -4.01 -3.26)"  >
<path style="stroke: none; stroke-width: 1; stroke-dasharray: none; stroke-linecap: butt; stroke-dashoffset: 0; stroke-linejoin: miter; stroke-miterlimit: 4; fill: rgb(0,184,77); fill-rule: nonzero; opacity: 1;" vector-effect="non-scaling-stroke"  transform=" translate(-9.99, -7.74)" d="M 17.563 13.7849 L 2.43503 13.7849 C 1.65994 13.7849 1.03711 13.1621 1.03711 12.387 L 1.03711 2.00632 C 1.03711 1.8264 1.18936 1.68799 1.36928 1.68799 C 1.53538 1.68799 1.68763 1.8264 1.68763 2.00632 L 1.68763 12.387 C 1.68763 12.8022 2.0198 13.1344 2.43503 13.1344 L 17.563 13.1344 C 17.9783 13.1344 18.3105 12.8022 18.3105 12.387 L 18.3105 2.00632 C 18.3105 1.8264 18.4489 1.68799 18.6289 1.68799 C 18.8088 1.68799 18.9471 1.8264 18.9471 2.00632 L 18.9471 12.387 C 18.9471 13.1621 18.3243 13.7849 17.563 13.7849 Z" stroke-linecap="round" />
</g>
		<g transform="matrix(1 0 0 1 -4 -0.02)"  >
<path style="stroke: none; stroke-width: 1; stroke-dasharray: none; stroke-linecap: butt; stroke-dashoffset: 0; stroke-linejoin: miter; stroke-miterlimit: 4; fill: rgb(0,184,77); fill-rule: nonzero; opacity: 1;" vector-effect="non-scaling-stroke"  transform=" translate(-10, -10.98)" d="M 19.6679 2.32526 L 0.318331 2.32526 C 0.138407 2.32526 0 2.18686 0 2.00692 L 0 0.318345 C 0 0.138407 0.138407 0 0.318331 0 L 19.6679 0 C 19.8477 0 20 0.138407 20 0.318345 L 20 2.00692 C 20 2.18686 19.8477 2.32526 19.6679 2.32526 Z M 0.65052 1.68859 L 19.3495 1.68859 L 19.3495 0.65052 L 0.65052 0.65052 L 0.65052 1.68859 Z M 9.99354 19.2388 C 9.8136 19.2388 9.67519 19.1004 9.67519 18.9204 L 9.67519 13.4533 C 9.67519 13.2872 9.8136 13.1349 9.99354 13.1349 C 10.1735 13.1349 10.3257 13.2872 10.3257 13.4533 L 10.3257 18.9204 C 10.3257 19.1004 10.1735 19.2388 9.99354 19.2388 Z M 5.28719 21.9516 C 5.24567 21.9516 5.21799 21.9377 5.19031 21.9377 C 5.02422 21.8823 4.92733 21.7025 4.96886 21.5364 L 7.43253 13.3703 C 7.48789 13.1903 7.66783 13.0935 7.83391 13.1489 C 8.01385 13.2041 8.11072 13.3841 8.05536 13.5502 L 5.59169 21.7164 C 5.55018 21.8547 5.4256 21.9516 5.28719 21.9516 Z M 14.7133 21.9516 C 14.5749 21.9516 14.4503 21.8547 14.4088 21.7164 L 11.9452 13.5502 C 11.8898 13.3841 11.9867 13.2041 12.1528 13.1489 C 12.3327 13.0935 12.5126 13.1903 12.5542 13.3703 L 15.0179 21.5364 C 15.0731 21.7025 14.9764 21.8823 14.8102 21.9377 C 14.7825 21.9377 14.741 21.9516 14.7133 21.9516 Z" stroke-linecap="round" />
</g>
</g>
</g>
<g transform="matrix(NaN NaN NaN NaN 0 0)"  >
<g style=""   >
</g>
</g>
<g transform="matrix(NaN NaN NaN NaN 0 0)"  >
<g style=""   >
</g>
</g>
</svg>