<?xml version="1.0" encoding="UTF-8" standalone="no" ?>
<!DOCTYPE svg PUBLIC "-//W3C//DTD SVG 1.1//EN" "http://www.w3.org/Graphics/SVG/1.1/DTD/svg11.dtd">
<svg xmlns="http://www.w3.org/2000/svg" xmlns:xlink="http://www.w3.org/1999/xlink" version="1.1" width="1080" height="1080" viewBox="0 0 1080 1080" xml:space="preserve">
<desc>Created with Fabric.js 5.2.4</desc>
<defs>
</defs>
<g transform="matrix(1 0 0 1 540 540)" id="1ddb6c88-ef8c-4ddf-b7cc-4ed558388254"  >
<rect style="stroke: none; stroke-width: 1; stroke-dasharray: none; stroke-linecap: butt; stroke-dashoffset: 0; stroke-linejoin: miter; stroke-miterlimit: 4; fill: rgb(255,255,255); fill-rule: nonzero; opacity: 1; visibility: hidden;" vector-effect="non-scaling-stroke"  x="-540" y="-540" rx="0" ry="0" width="1080" height="1080" />
</g>
<g transform="matrix(1 0 0 1 540 540)" id="faf4a1b5-abd4-4bbe-ab00-70034badcefa"  >
</g>
<g transform="matrix(38.57 0 0 38.57 540 580.17)"  >
<path style="stroke: none; stroke-width: 1; stroke-dasharray: none; stroke-linecap: butt; stroke-dashoffset: 0; stroke-linejoin: miter; stroke-miterlimit: 4; fill: rgb(254,57,60); fill-rule: nonzero; opacity: 1;"  transform=" translate(-11, -10.07)" d="M 3.12891 1.31543 C 2.78081 1.31543 2.44697 1.45371 2.20083 1.69985 C 1.95469 1.94599 1.81641 2.27983 1.81641 2.62793 C 1.81695 2.92475 1.91808 3.21262 2.10329 3.44455 C 2.28851 3.67649 2.54688 3.8388 2.83622 3.90499 C 3.55973 5.46749 4.70905 6.79439 6.15234 7.73344 C 7.59562 8.67249 9.27438 9.18565 10.996 9.21406 L 11.0065 18.8163 L 14.7997 15.0836 L 19.9184 14.4431 L 13.5882 8.91087 C 13.6722 8.88593 13.7077 8.88462 13.8035 8.85443 C 15.0718 8.47155 16.2424 7.81876 17.2347 6.94086 C 18.227 6.06296 19.0176 4.98074 19.5522 3.76849 C 19.7444 3.65151 19.9032 3.48711 20.0136 3.29106 C 20.1239 3.09501 20.182 2.87389 20.1822 2.64893 C 20.1822 2.30083 20.0439 1.96699 19.7978 1.72085 C 19.5517 1.47471 19.2178 1.33643 18.8697 1.33643 C 18.5216 1.33643 18.1878 1.47471 17.9416 1.72085 C 17.6955 1.96699 17.5572 2.30083 17.5572 2.64893 C 17.5572 2.86177 17.6089 3.07143 17.7079 3.25984 C 17.8069 3.44825 17.9502 3.60975 18.1255 3.73043 C 17.6378 4.65549 16.9706 5.47408 16.1629 6.13842 C 15.3552 6.80275 14.4233 7.29951 13.4215 7.59968 L 13.4189 7.59968 C 12.8965 7.7598 12.6367 7.83855 12.4135 7.88187 L 10.9934 6.64155 L 10.996 7.90681 C 9.55331 7.87801 8.14648 7.45184 6.93031 6.67517 C 5.71414 5.89851 4.73576 4.80145 4.10278 3.50468 C 4.32001 3.26425 4.44063 2.95196 4.44141 2.62793 C 4.44141 2.27983 4.30313 1.94599 4.05698 1.69985 C 3.81084 1.45371 3.477 1.31543 3.12891 1.31543 Z M 12.3112 9.5343 L 16.8511 13.5046 L 14.1985 13.8354 L 12.3164 15.686 L 12.3112 9.5343 Z" stroke-linecap="round" />
</g>
<g transform="matrix(NaN NaN NaN NaN 0 0)"  >
<g style=""   >
</g>
</g>
<g transform="matrix(NaN NaN NaN NaN 0 0)"  >
<g style=""   >
</g>
</g>
</svg>